<?xml version="1.0" encoding="utf-8"?>
<!-- Generator: Adobe Illustrator 26.4.0, SVG Export Plug-In . SVG Version: 6.00 Build 0)  -->
<svg version="1.1" id="Layer_1" xmlns="http://www.w3.org/2000/svg" xmlns:xlink="http://www.w3.org/1999/xlink" x="0px" y="0px"
	 viewBox="0 0 489.6 489.6" style="enable-background:new 0 0 489.6 489.6;" xml:space="preserve">
<style type="text/css">
	.st0{clip-path:url(#SVGID_00000155122377007800815050000005775502838174186408_);}
	.st1{fill:none;stroke:#8DC63F;stroke-width:14;stroke-linecap:round;stroke-linejoin:round;}
	.st2{fill:none;stroke:#28AAE1;stroke-width:14;stroke-linecap:round;stroke-linejoin:round;}
	.st3{fill:none;stroke:#FBB040;stroke-width:14;stroke-linecap:round;stroke-linejoin:round;}
	.st4{fill:none;stroke:#DA1C5C;stroke-width:14;stroke-linecap:round;stroke-linejoin:round;}
	.st5{clip-path:url(#SVGID_00000105389426641502230000000011989335264201695411_);}
	.st6{clip-path:url(#SVGID_00000029740485733805251480000011359452910036098487_);}
	.st7{fill:#DA1C5C;}
	.st8{clip-path:url(#SVGID_00000153699457828492155790000011784678363588287874_);}
</style>
<g>
	<defs>
		<rect id="SVGID_1_" x="-137" y="-127" width="765" height="765"/>
	</defs>
	<clipPath id="SVGID_00000044894280941250721050000017964220075222524060_">
		<use xlink:href="#SVGID_1_"  style="overflow:visible;"/>
	</clipPath>
	<g style="clip-path:url(#SVGID_00000044894280941250721050000017964220075222524060_);">
		<g>
			<path class="st1" d="M186.1,296.3c0,48.8-38.5,88.3-86.1,88.3S13.8,345,13.8,296.3s38.5-88.3,86.1-88.3S186.1,247.5,186.1,296.3z
				 M477.1,296.3c0,48.8-38.5,88.3-86.1,88.3s-86.1-39.5-86.1-88.3s38.5-88.3,86.1-88.3S477.1,247.5,477.1,296.3z"/>
			<path class="st2" d="M105.1,282.3c2.2-4.1,74.7-110.7,74.7-110.7h144.9l65.9,128.2"/>
		</g>
	</g>
</g>
<path class="st3" d="M263.2,275.7l64.9-101.8 M156.7,126.7L231,273.6"/>
<polyline class="st4" points="391.4,301.4 301,122.1 362,124.2 "/>
<g>
	<defs>
		<rect id="SVGID_00000143604496034184429130000004343449207665208479_" x="-137" y="-127" width="765" height="765"/>
	</defs>
	<clipPath id="SVGID_00000168089441000878258110000016185302954613348533_">
		<use xlink:href="#SVGID_00000143604496034184429130000004343449207665208479_"  style="overflow:visible;"/>
	</clipPath>
	<g style="clip-path:url(#SVGID_00000168089441000878258110000016185302954613348533_);">
		<path class="st1" d="M360.3,123.8c11.6,0,21.1,9.1,21.1,20.4s-9.4,20.4-21.1,20.4c-5.7,0-10.9-2.2-14.7-5.8"/>
	</g>
</g>
<line class="st2" x1="199.4" y1="126.4" x2="132.6" y2="126.4"/>
<path class="st3" d="M98.7,275.6l150.2-12.4 M98.7,316.9l150.2,12.4"/>
<g>
	<defs>
		<rect id="SVGID_00000045621359916820220060000008131833533910339518_" x="-137" y="-127" width="765" height="765"/>
	</defs>
	<clipPath id="SVGID_00000069367902653877432910000000158788939469791106_">
		<use xlink:href="#SVGID_00000045621359916820220060000008131833533910339518_"  style="overflow:visible;"/>
	</clipPath>
	<g style="clip-path:url(#SVGID_00000069367902653877432910000000158788939469791106_);">
		<path class="st7" d="M285.7,296.3c0,22.3-18.1,40.4-40.4,40.4s-40.4-18.1-40.4-40.4s18.1-40.4,40.4-40.4S285.7,273.9,285.7,296.3"
			/>
	</g>
</g>
<line class="st2" x1="248.8" y1="292.7" x2="227.9" y2="342.4"/>
<g>
	<defs>
		<rect id="SVGID_00000023268078505265067570000013645088926711045025_" x="-137" y="-127" width="765" height="765"/>
	</defs>
	<clipPath id="SVGID_00000084527342780338961950000010239346037183835788_">
		<use xlink:href="#SVGID_00000023268078505265067570000013645088926711045025_"  style="overflow:visible;"/>
	</clipPath>
	<g style="clip-path:url(#SVGID_00000084527342780338961950000010239346037183835788_);">
		<path class="st7" d="M131.7,296.3c0,16.3-13.2,29.5-29.5,29.5s-29.5-13.2-29.5-29.5s13.2-29.5,29.5-29.5S131.7,279.9,131.7,296.3"
			/>
	</g>
</g>
</svg>
