<?xml version="1.0" encoding="utf-8"?>
<!-- Generator: Adobe Illustrator 26.4.0, SVG Export Plug-In . SVG Version: 6.00 Build 0)  -->
<svg version="1.1" id="Layer_1" xmlns="http://www.w3.org/2000/svg" xmlns:xlink="http://www.w3.org/1999/xlink" x="0px" y="0px"
	 viewBox="0 0 376.5 376.5" style="enable-background:new 0 0 376.5 376.5;" xml:space="preserve">
<style type="text/css">
	.st0{clip-path:url(#SVGID_00000111158435520572152540000015078313851553051321_);}
	.st1{fill:none;stroke:#DA1C5C;stroke-width:7;stroke-linecap:round;stroke-linejoin:round;}
	.st2{fill:none;stroke:#FBB040;stroke-width:7;stroke-linecap:round;stroke-linejoin:round;}
	.st3{fill:none;stroke:#28AAE1;stroke-width:7;stroke-linecap:round;stroke-linejoin:round;}
	.st4{clip-path:url(#SVGID_00000041263095174483073140000012978877118063472014_);}
	.st5{fill:#8DC63F;}
	.st6{fill:none;stroke:#8DC63F;stroke-width:7;stroke-linecap:round;stroke-linejoin:round;}
	.st7{clip-path:url(#SVGID_00000040567523560435989290000006523081741908319664_);}
</style>
<g>
	<defs>
		<rect id="SVGID_1_" x="-33.5" y="-26" width="436" height="436"/>
	</defs>
	<clipPath id="SVGID_00000087413633122748828810000002773134172794928529_">
		<use xlink:href="#SVGID_1_"  style="overflow:visible;"/>
	</clipPath>
	<g style="clip-path:url(#SVGID_00000087413633122748828810000002773134172794928529_);">
		<g>
			<path class="st1" d="M270.8,205.9v30.9h-4.5c0.2-1.2,0.4-2.5,0.4-3.7c0-11.2-9.5-20.3-21.2-20.3c-11.7,0-21.2,9.1-21.2,20.3
				c0,1.3,0.1,2.6,0.4,3.7h-75.9v-30.9H270.8L270.8,205.9z M106.8,205.9H14.9v-48.6h91.8L106.8,205.9L106.8,205.9z"/>
			<path class="st2" d="M353.2,227.8c0,5-4.1,9-9.3,9h-23v-79.7H112.1v79.7h-11.9c0.2-1.2,0.4-2.5,0.4-3.8
				c0-11.2-9.3-20.4-20.8-20.4s-20.9,9.1-20.9,20.4c0,1.3,0.1,2.6,0.4,3.8h-35c-5.1,0-9.3-4-9.3-9v-74.1c0-5,4.1-9,9.3-9h309.1
				c5.1,0,7.8,3.2,9.3,9l1.4,5.8h0l1.1,4.5c4,16.2,6.5,32.8,7.4,49.4L353.2,227.8L353.2,227.8L353.2,227.8z"/>
		</g>
	</g>
</g>
<path class="st3" d="M271.1,205.9h-58.9v-48.2h58.9V205.9L271.1,205.9z M212.2,205.9h-58.9v-48.2h58.9V205.9z"/>
<path class="st2" d="M356.8,156.8h-11.6 M358.9,168.5l-2.7-1.1l-1-8.3l2.3-2.2L358.9,168.5L358.9,168.5L358.9,168.5z"/>
<g>
	<defs>
		<rect id="SVGID_00000181055863808797540160000007767358606280179369_" x="-33.5" y="-26" width="436" height="436"/>
	</defs>
	<clipPath id="SVGID_00000047778572070914371180000010485225703168351636_">
		<use xlink:href="#SVGID_00000181055863808797540160000007767358606280179369_"  style="overflow:visible;"/>
	</clipPath>
	<g style="clip-path:url(#SVGID_00000047778572070914371180000010485225703168351636_);">
		<g>
			<path class="st5" d="M253.2,238.2c-1.4,2.9-4.4,4.9-7.8,4.9c-3.4,0-6.4-2-7.8-4.9c-0.6-1.2-0.9-2.4-0.9-3.8
				c0-4.8,3.9-8.6,8.6-8.6c4.8,0,8.6,3.9,8.6,8.6C254.1,235.8,253.8,237.1,253.2,238.2 M245.4,217.7c-9.2,0-16.7,7.5-16.7,16.7
				c0,1.3,0.1,2.6,0.5,3.8c1.7,7.4,8.3,12.9,16.2,12.9s14.6-5.5,16.3-12.9c0.3-1.2,0.5-2.5,0.5-3.8
				C262.1,225.2,254.7,217.7,245.4,217.7"/>
			<path class="st5" d="M87.6,238.2c-1.4,2.9-4.4,4.9-7.8,4.9c-3.4,0-6.4-2-7.8-4.9c-0.6-1.2-0.9-2.4-0.9-3.8c0-4.8,3.9-8.6,8.6-8.6
				c4.8,0,8.6,3.9,8.6,8.6C88.5,235.8,88.2,237.1,87.6,238.2 M79.9,217.7c-9.2,0-16.7,7.5-16.7,16.7c0,1.3,0.1,2.6,0.5,3.8
				c1.7,7.4,8.3,12.9,16.3,12.9s14.5-5.5,16.2-12.9c0.3-1.2,0.5-2.5,0.5-3.8C96.6,225.2,89.1,217.7,79.9,217.7"/>
		</g>
	</g>
</g>
<path class="st6" d="M320.8,236.8h-37.1v-79.5h37.1V236.8L320.8,236.8z M134.1,157.2v79.5 M283.7,236.8h-12.9v-79.5h12.9V236.8z"/>
<line class="st2" x1="328.3" y1="236.8" x2="267.8" y2="236.8"/>
<g>
	<defs>
		<rect id="SVGID_00000106840449279697184600000007794957412513561760_" x="-35.2" y="-23.1" width="436" height="436"/>
	</defs>
	<clipPath id="SVGID_00000101100436743476039860000012523657261123290240_">
		<use xlink:href="#SVGID_00000106840449279697184600000007794957412513561760_"  style="overflow:visible;"/>
	</clipPath>
	<g style="clip-path:url(#SVGID_00000101100436743476039860000012523657261123290240_);">
		<path class="st3" d="M343.5,205.5h-22.9v-48.2h14.9C335.5,157.4,339.8,167.7,343.5,205.5z"/>
	</g>
</g>
<polyline class="st6" points="148.8,157.2 148.8,236.8 112.5,236.8 112.5,157.2 148.8,157.2 "/>
<line class="st1" x1="160.9" y1="236.8" x2="104.3" y2="236.8"/>
</svg>
