<?xml version="1.0" encoding="utf-8"?>
<!-- Generator: Adobe Illustrator 26.4.0, SVG Export Plug-In . SVG Version: 6.00 Build 0)  -->
<svg version="1.1" id="Layer_1" xmlns="http://www.w3.org/2000/svg" xmlns:xlink="http://www.w3.org/1999/xlink" x="0px" y="0px"
	 viewBox="0 0 303 303" style="enable-background:new 0 0 303 303;" xml:space="preserve">
<style type="text/css">
	.st0{fill:none;stroke:#F9B233;stroke-width:8;stroke-linecap:round;stroke-linejoin:round;}
	.st1{fill:none;stroke:#95C11F;stroke-width:14;stroke-linecap:round;stroke-linejoin:round;}
	.st2{fill:#FFFFFF;}
	.st3{fill:none;stroke:#D60B52;stroke-width:14;stroke-linecap:round;stroke-linejoin:round;}
	.st4{fill:none;stroke:#D60B52;stroke-width:12;stroke-linecap:round;stroke-linejoin:round;}
	.st5{fill:none;stroke:#36A9E1;stroke-width:13;stroke-linecap:round;stroke-linejoin:round;}
	.st6{fill:none;stroke:#F9B233;stroke-width:14;stroke-linecap:round;stroke-linejoin:round;}
</style>
<g id="voiture">
	<path class="st0" d="M232.4,138.7h-13c0-8.1-7-14.6-15.3-14.6c-8.3,0-15.3,6.4-15.3,14.6h-13c0-10.4,6-19.2,15-23.9
		c4.1-2,8.5-3.2,13.5-3.2c5.4,0,10.4,1.5,14.8,3.9C227,120.2,232.4,128.9,232.4,138.7L232.4,138.7L232.4,138.7z"/>
	<path class="st1" d="M84.4,235.6v43.7c0,1.9-1.6,3.7-3.7,3.7H53.6c-1.9,0-3.7-1.6-3.7-3.7v-43.7H84.4L84.4,235.6z"/>
	<path class="st1" d="M253.6,235.6v43.7c0,1.9-1.6,3.7-3.7,3.7h-27.2c-1.9,0-3.7-1.6-3.7-3.7v-43.7H253.6L253.6,235.6z"/>
	<path class="st2" d="M41.6,125.4v6C40.8,129.7,40.7,127.6,41.6,125.4z"/>
	<path class="st3" d="M270.6,112.3c-3.7-8.4-8-17.8-12.6-26.6c-10-18.4-22.1-34.2-34-34.2H82.2c-17.5,0-35.3,34.2-46.6,60.6
		c-10,0.6-28.6,4.1-28.6,20.5c0,11,8.6,16.1,17.2,18.4v74.1c0,5.7,4.6,10.5,10.5,10.5h237.1c5.7,0,10.5-4.6,10.5-10.5V150
		c7.3-2.7,13.8-7.8,13.8-17.5C295.9,117.9,280.8,113.6,270.6,112.3L270.6,112.3L270.6,112.3z"/>
	<path class="st3" d="M56.1,174.5c0-9.9,8-17.8,17.8-17.8s17.8,8,17.8,17.8s-8,17.8-17.8,17.8S56.1,184.4,56.1,174.5z"/>
	<path class="st4" d="M77.4,194.7h148.9c1.3,0,2.3,1.1,2.3,2.3v17.1c0,1.3-1.1,2.3-2.3,2.3H77.4c-1.3,0-2.3-1.1-2.3-2.3V197
		C75,195.8,75.9,194.7,77.4,194.7z"/>
	<path class="st3" d="M232.1,192.3c-9.9,0-17.8-8-17.8-17.8s8-17.8,17.8-17.8c9.9,0,17.8,8,17.8,17.8S241.8,192.3,232.1,192.3z"/>
	<path class="st5" d="M246.5,140.1c-0.1,0.1-0.3,0.1-0.4,0.1c-0.7,0.3-1.4,0.6-2.2,0.7h-0.1c-0.1,0-0.4,0.1-0.7,0.1
		c-0.3,0-0.6,0.1-0.9,0.1h-65.2c0,0,0,0.1,0.1,0.1h-40.6c0,0,0-0.1,0.1-0.1H64.1c-3.9,0-9.6-2.6-11.3-6.6c-0.7-1.6-0.9-3.4,0-5.4
		c0.3-0.6,0.6-1,0.9-1.6l24.4-41c0,0,7.2-13.6,15.5-13.6h120.1h0.1c0.1,0,0.3,0.1,0.4,0.1c0.1,0,0.3,0.1,0.4,0.1
		c0.1,0,0.3,0.1,0.6,0.1c0.1,0.1,0.4,0.1,0.6,0.3c0.4,0.1,0.7,0.4,1.1,0.7c0.1,0.1,0.4,0.3,0.6,0.4c0.1,0.1,0.4,0.3,0.6,0.4
		c1.3,1,2.7,2.3,4,3.7c0.1,0.1,0.4,0.4,0.6,0.6c0.1,0.1,0.4,0.4,0.6,0.6c0.4,0.6,0.9,1,1.3,1.6c0.3,0.3,0.6,0.6,0.9,1
		c0.4,0.6,0.9,1.1,1.3,1.6c0.1,0.1,0.3,0.4,0.4,0.6c0.6,0.7,0.9,1.3,1.1,1.6c0,0,0,0,0,0.1l0,0l22.4,37.4l2.2,3.6
		C255.9,131.8,251.3,137.7,246.5,140.1L246.5,140.1L246.5,140.1z"/>
	<path class="st2" d="M256,137.6c-0.8,0.3-1.6,0.6-2.4,0.8h-0.2C254.2,138.2,255,138.1,256,137.6z"/>
	<path class="st6" d="M91.5,174.5c0,9.9-8,17.8-17.8,17.8s-17.8-8-17.8-17.8s8-17.8,17.8-17.8S91.5,164.8,91.5,174.5z"/>
	<path class="st6" d="M249.9,174.5c0,9.9-8,17.8-17.8,17.8c-9.9,0-17.8-8-17.8-17.8s8-17.8,17.8-17.8
		C242,156.7,249.9,164.8,249.9,174.5z"/>
	<path class="st2" d="M256,137.6c-0.8,0.3-1.6,0.6-2.4,0.8h-0.2C254.2,138.2,255,138.1,256,137.6z"/>
	<path class="st2" d="M256,137.6c-0.8,0.3-1.6,0.6-2.4,0.8h-0.2C254.2,138.2,255,138.1,256,137.6z"/>
</g>
</svg>
