<?xml version="1.0" encoding="utf-8"?>
<!-- Generator: Adobe Illustrator 26.4.0, SVG Export Plug-In . SVG Version: 6.00 Build 0)  -->
<svg version="1.1" id="Layer_1" xmlns="http://www.w3.org/2000/svg" xmlns:xlink="http://www.w3.org/1999/xlink" x="0px" y="0px"
	 viewBox="0 0 420.8 420.8" style="enable-background:new 0 0 420.8 420.8;" xml:space="preserve">
<style type="text/css">
	.st0{clip-path:url(#SVGID_00000157266070074815919400000014932719540213899149_);}
	.st1{fill:none;stroke:#DA1C5C;stroke-width:6;stroke-linecap:round;stroke-linejoin:round;}
	.st2{fill:none;stroke:#8DC63F;stroke-width:10;stroke-linecap:round;stroke-linejoin:round;}
	.st3{fill:none;stroke:#DA1C5C;stroke-width:10;stroke-linecap:round;stroke-linejoin:round;}
	.st4{fill:#28AAE1;}
	.st5{fill:none;stroke:#28AAE1;stroke-width:10;stroke-linecap:round;stroke-linejoin:round;}
	.st6{fill:none;stroke:#FBB040;stroke-width:10;stroke-linecap:round;stroke-linejoin:round;}
	.st7{fill:#FBB040;}
</style>
<g>
	<defs>
		<rect id="SVGID_1_" x="-75.1" y="-84.5" width="571" height="571"/>
	</defs>
	<clipPath id="SVGID_00000097471490409493881180000002803641801443157121_">
		<use xlink:href="#SVGID_1_"  style="overflow:visible;"/>
	</clipPath>
	<g style="clip-path:url(#SVGID_00000097471490409493881180000002803641801443157121_);">
		<g>
			<path class="st1" d="M128.7,149.7c0,7.7-6.1,14-13.6,14c-7.5,0-13.6-6.3-13.6-14c0-7.7,6.1-14,13.6-14
				C122.6,135.7,128.7,142,128.7,149.7z M138.3,180.1c0,0-5.5-10.1-20.3-10.3c-14.9-0.1-18.4,10.3-18.4,10.3 M228.3,147.8
				c0,5.8-4.6,10.5-10.2,10.5c-5.7,0-10.2-4.7-10.2-10.5c0-5.8,4.6-10.5,10.2-10.5C223.7,137.3,228.3,142,228.3,147.8z M200.4,151.3
				c0,7.7-6.1,14-13.6,14s-13.6-6.3-13.6-14c0-7.7,6.1-14,13.6-14S200.4,143.6,200.4,151.3z M210,181.8c0,0-5.5-10.1-20.3-10.3
				c-14.9-0.1-18.4,10.3-18.4,10.3 M232.7,182.5c0,0,2.4-15.4-15.3-15.4c-15.5,0-14,15.4-14,15.4"/>
			<path class="st2" d="M307.7,170.3l25.8,3.9c17.6,2.7,34.9,7.4,51.5,14.1h-16.3c-1.6,0-3.1,0.7-4.1,1.7c-1.1,1.1-1.7,2.5-1.7,4.1
				c0,3.2,2.6,5.8,5.8,5.8h35c0.5,0,1-0.1,1.5-0.2c0.8,1.6,1.3,3.4,1.5,5.2l2.8,44.4c0.6,8.9-6.5,16.5-15.5,16.5h-21.3
				c0.8-3.2,1.2-6.6,1.2-10.1c0-23.7-19.2-43-42.8-43s-42.8,19.3-42.8,43c0,3.5,0.4,6.9,1.2,10.1"/>
			<path class="st3" d="M23.7,184.8c9.9-26.6,27.2-54.2,56.9-61.4c32.1-7.7,115.9-5.2,140.9-0.9c12.9,2.2,27.9,6.4,35.1,11.5
				l52.5,37.6"/>
			<path class="st2" d="M103.4,265.8c0.8-3.2,1.2-6.6,1.2-10.1c0-23.8-19.3-43.1-43-43.1s-43,19.3-43,43.1c0,0.8,0,1.7,0.1,2.5
				c-4.7-4.6-7.3-11-7.3-17.6c0-1.9,0.2-3.9,0.7-5.8c0.4-5.3,1.7-15.9,4.8-28.6l22.1-8.4c3.8-1.4,6.2-5,6.2-8.9
				c0-1.1-0.2-2.2-0.6-3.4c-1.8-4.9-7.4-7.4-12.2-5.5l-8.3,3.2"/>
			<path class="st4" d="M61.5,271.3c-5.2,0-9.9-2.5-12.8-6.3c-0.7-0.9-1.3-1.8-1.8-2.8c-1.1-2.2-1.6-4.6-1.6-7.1
				c0-8.9,7.3-16.2,16.2-16.2s16.2,7.3,16.2,16.2c0,2.5-0.6,5-1.6,7.1c-0.5,1-1.1,1.9-1.8,2.8C71.4,268.8,66.7,271.3,61.5,271.3
				 M61.5,223.7c-17.3,0-31.4,14.1-31.4,31.3c0,2.5,0.3,4.9,0.8,7.1c0.1,0.5,0.3,1.1,0.4,1.6c3.7,13.1,15.8,22.7,30.1,22.7
				s25.6-9,29.7-21.5c0.3-0.9,0.6-1.9,0.8-2.8c0.6-2.3,0.8-4.6,0.8-7.1C92.8,237.8,78.8,223.7,61.5,223.7"/>
			<path class="st4" d="M331.3,271.3c-5.2,0-9.9-2.5-12.8-6.3c-0.7-0.9-1.3-1.8-1.8-2.8c-1.1-2.2-1.7-4.6-1.7-7.1
				c0-8.9,7.3-16.2,16.3-16.2s16.2,7.3,16.2,16.2c0,2.5-0.6,5-1.6,7.1c-0.5,1-1.1,1.9-1.8,2.8C341.2,268.8,336.5,271.3,331.3,271.3
				 M331.3,223.7c-17.3,0-31.4,14.1-31.4,31.3c0,2.5,0.3,4.9,0.8,7.1c0.2,1,0.5,1.9,0.8,2.8c4.1,12.5,15.9,21.5,29.7,21.5
				c13.8,0,25.6-9,29.7-21.5c0.3-0.9,0.6-1.9,0.8-2.8c0.6-2.3,0.9-4.6,0.9-7.1C362.7,237.8,348.6,223.7,331.3,223.7"/>
			<path class="st5" d="M285.2,184.1l-35.6-0.7l-14.2-44.6C264.9,146.8,285.2,184.1,285.2,184.1L285.2,184.1L285.2,184.1z
				 M162.2,181.7l-11.4-0.2L85,180.3l7.3-43.9c20.1-3.5,44.5-4.9,68-4.7L162.2,181.7L162.2,181.7L162.2,181.7z M92.2,136.4
				l-7.3,43.9l-10.7-0.2l-10.7-15.9c0,0,8.1-22.3,13.5-24.5C81.7,138.4,86.8,137.3,92.2,136.4L92.2,136.4L92.2,136.4z"/>
			<path class="st6" d="M405.2,200.8c-0.5,0.2-1,0.2-1.6,0.2h-35.9c-3.3,0-6-2.9-6-6.5c0-1.8,0.7-3.5,1.7-4.6
				c1.1-1.2,2.6-1.9,4.2-1.9h16.8l12.1,5.3C400.4,194.3,403.5,197.1,405.2,200.8L405.2,200.8L405.2,200.8z"/>
			<path class="st7" d="M46.2,189.3c0,4-2.4,7.8-6.4,9.3l-23,8.8c1.8-7.5,4.2-15.7,7.4-24l8.7-3.3c5.1-1.9,10.8,0.7,12.7,5.8
				C46,186.9,46.2,188.1,46.2,189.3"/>
			<path class="st6" d="M46.2,189.3c0,4-2.4,7.8-6.4,9.3l-23,8.8c1.8-7.5,4.2-15.7,7.4-24l8.7-3.3c5.1-1.9,10.8,0.7,12.7,5.8
				C46,186.9,46.2,188.1,46.2,189.3C46.2,189.3,46.2,189.3,46.2,189.3z"/>
			<path class="st5" d="M249.8,183.4l-76-1.4l-11.5-0.2h-0.8l-2-50.1c3.2,0,6.4,0.1,9.6,0.1c27.6,0.7,52.7,3.4,66.3,7L249.8,183.4
				L249.8,183.4z"/>
		</g>
	</g>
</g>
<path class="st6" d="M165.4,265.8L160,131.7 M291.1,265.8H101.7"/>
</svg>
