<?xml version="1.0" encoding="utf-8"?>
<!-- Generator: Adobe Illustrator 26.4.0, SVG Export Plug-In . SVG Version: 6.00 Build 0)  -->
<svg version="1.1" id="Layer_1" xmlns="http://www.w3.org/2000/svg" xmlns:xlink="http://www.w3.org/1999/xlink" x="0px" y="0px"
	 viewBox="0 0 585.7 585.7" style="enable-background:new 0 0 585.7 585.7;" xml:space="preserve">
<style type="text/css">
	.st0{clip-path:url(#SVGID_00000151532631082556649760000005794754097526342793_);}
	.st1{fill:none;stroke:#DA1C5C;stroke-width:8;stroke-linecap:round;stroke-linejoin:round;}
	.st2{fill:none;stroke:#8DC63F;stroke-width:12;stroke-linecap:round;stroke-linejoin:round;}
	.st3{fill:none;stroke:#DA1C5C;stroke-width:12;stroke-linecap:round;stroke-linejoin:round;}
	.st4{fill:#28AAE1;}
	.st5{fill:none;stroke:#28AAE1;stroke-width:12;stroke-linecap:round;stroke-linejoin:round;}
	.st6{fill:none;stroke:#FBB040;stroke-width:12;stroke-linecap:round;stroke-linejoin:round;}
	.st7{fill:#FBB040;}
	.st8{fill:#F9B233;}
</style>
<g>
	<defs>
		<rect id="SVGID_1_" x="-98.9" y="-103.4" width="783.5" height="783.5"/>
	</defs>
	<clipPath id="SVGID_00000120530945435727403890000001181589937428664236_">
		<use xlink:href="#SVGID_1_"  style="overflow:visible;"/>
	</clipPath>
	<g style="clip-path:url(#SVGID_00000120530945435727403890000001181589937428664236_);">
		<g>
			<path class="st1" d="M180.7,217.8c0,10.6-8.4,19.2-18.7,19.2c-10.3,0-18.7-8.6-18.7-19.2c0-10.6,8.4-19.2,18.7-19.2
				C172.3,198.7,180.7,207.3,180.7,217.8z M194,259.7c0,0-7.6-13.9-27.8-14.1c-20.4-0.2-25.2,14.1-25.2,14.1 M317.4,215.3
				c0,7.9-6.3,14.4-14,14.4s-14-6.4-14-14.4s6.3-14.4,14-14.4S317.4,207.4,317.4,215.3z M279.1,220.1c0,10.6-8.4,19.2-18.7,19.2
				c-10.3,0-18.7-8.6-18.7-19.2c0-10.6,8.4-19.2,18.7-19.2C270.7,200.9,279.1,209.5,279.1,220.1z M292.4,261.9
				c0,0-7.6-13.9-27.8-14.1c-20.4-0.2-25.2,14.1-25.2,14.1 M323.4,262.9c0,0,3.2-21.1-20.9-21.1c-21.3,0-19.2,21.1-19.2,21.1"/>
			<path class="st2" d="M426.4,246.1l35.3,5.4c24.2,3.7,47.9,10.2,70.6,19.3H510c-2.2,0-4.2,0.9-5.6,2.4c-1.5,1.5-2.3,3.5-2.3,5.7
				c0,4.4,3.6,8,8,8h48.1c0.7,0,1.4-0.1,2.1-0.3c1.1,2.2,1.8,4.6,2,7.2l3.8,60.9c0.8,12.3-9,22.7-21.2,22.7h-29.3
				c1.1-4.4,1.7-9.1,1.7-13.8c0-32.6-26.3-59-58.7-59s-58.7,26.5-58.7,59c0,4.8,0.6,9.4,1.6,13.8"/>
			<path class="st3" d="M36.6,266c13.5-36.4,37.3-74.4,78.1-84.2c44-10.6,159-7.1,193.3-1.3c17.6,3,38.2,8.7,48.2,15.8l70.2,49.8"/>
			<path class="st2" d="M146,377.3c1.1-4.4,1.7-9.1,1.7-13.9c0-32.6-26.4-59.1-59-59.1s-59,26.5-59,59.1c0,1.1,0.1,2.3,0.1,3.4
				c-6.4-6.2-10.1-15.1-10.1-24.2c0-2.6,0.3-5.3,0.9-8c0.5-7.2,2.3-21.8,6.6-39.2l30.4-11.5c5.2-2,8.4-6.9,8.4-12.2
				c0-1.5-0.3-3.1-0.8-4.6c-2.5-6.8-10.1-10.1-16.8-7.6l-11.4,4.4"/>
			<path class="st4" d="M88.6,384.8c-7.2,0-13.6-3.4-17.6-8.7c-0.9-1.2-1.7-2.5-2.4-3.9c-1.5-3-2.3-6.3-2.3-9.8
				c0-12.3,10-22.3,22.3-22.3s22.3,10,22.3,22.3c0,3.5-0.8,6.8-2.2,9.8c-0.7,1.4-1.5,2.7-2.4,3.9C102.1,381.4,95.7,384.8,88.6,384.8
				 M88.6,319.5c-23.8,0-43,19.3-43,43c0,3.4,0.4,6.7,1.2,9.8c0.2,0.7,0.4,1.5,0.6,2.2c5.1,17.9,21.7,31.1,41.3,31.1
				s35.1-12.3,40.7-29.4c0.4-1.3,0.8-2.6,1.1-3.9c0.8-3.1,1.2-6.4,1.2-9.8C131.5,338.8,112.3,319.5,88.6,319.5"/>
			<path class="st4" d="M458.8,384.8c-7.2,0-13.6-3.4-17.6-8.7c-0.9-1.2-1.7-2.5-2.4-3.9c-1.5-3-2.3-6.3-2.3-9.8
				c0-12.3,10-22.3,22.3-22.3s22.2,10,22.2,22.3c0,3.5-0.8,6.8-2.2,9.8c-0.7,1.4-1.5,2.7-2.4,3.9
				C472.3,381.4,465.9,384.8,458.8,384.8 M458.8,319.5c-23.8,0-43.1,19.3-43.1,43c0,3.4,0.4,6.7,1.2,9.8c0.3,1.3,0.7,2.6,1.1,3.9
				c5.7,17.1,21.8,29.4,40.8,29.4s35.1-12.3,40.7-29.4c0.4-1.3,0.8-2.6,1.1-3.9c0.8-3.1,1.2-6.4,1.2-9.8
				C501.8,338.8,482.6,319.5,458.8,319.5"/>
			<path class="st5" d="M395.5,265.1l-48.9-0.9l-19.5-61.2C367.6,213.9,395.5,265.1,395.5,265.1L395.5,265.1L395.5,265.1z
				 M226.7,261.9l-15.7-0.3l-90.3-1.7l10-60.3c27.5-4.8,61.1-6.7,93.4-6.5L226.7,261.9L226.7,261.9L226.7,261.9L226.7,261.9z
				 M130.7,199.6l-10,60.2l-14.7-0.3l-14.7-21.8c0,0,11.1-30.6,18.5-33.6C116.2,202.5,123.2,200.9,130.7,199.6L130.7,199.6
				L130.7,199.6L130.7,199.6z"/>
			<path class="st6" d="M560.2,286.5c-0.7,0.2-6.6,0.3-7.4,0.3H510c-4.5,0-8-3-8-8c0-2.5,0.8-4,2.3-5.7c1.5-1.6,3.4-2.4,5.6-2.4
				h22.3l15.9,2.6c7.2,1.7,11.4,5.3,13.2,9l0,0l0,0C561.3,283.8,560.9,285.2,560.2,286.5L560.2,286.5z"/>
			<path class="st7" d="M67.5,272.3c0,5.5-3.4,10.7-8.8,12.7l-31.6,12c2.5-10.3,5.8-21.6,10.1-33l11.9-4.5c7-2.7,14.9,0.9,17.5,7.9
				C67.2,269,67.5,270.6,67.5,272.3"/>
			<path class="st6" d="M67.5,272.3c0,5.5-3.4,10.7-8.8,12.7l-31.6,12c2.5-10.3,5.8-21.6,10.1-33l11.9-4.5c7-2.7,14.9,0.9,17.5,7.9
				C67.2,269,67.5,270.6,67.5,272.3L67.5,272.3L67.5,272.3z"/>
			<path class="st5" d="M346.9,264.1l-104.3-1.9l-15.8-0.3h-1l-2.7-68.7c4.4,0,8.8,0.1,13.2,0.2c37.8,0.9,72.3,4.6,91,9.6
				L346.9,264.1L346.9,264.1L346.9,264.1z"/>
		</g>
	</g>
</g>
<path class="st6" d="M231.1,377.3l-7.3-184.1 M401.4,377.3l-255.4,0"/>
<polygon class="st8" points="467,198.2 476.1,239.7 443.9,185.4 473.8,186.6 472.1,146.6 494.7,199.4 "/>
</svg>
