<?xml version="1.0" encoding="UTF-8"?><svg id="Layer_1" xmlns="http://www.w3.org/2000/svg" xmlns:xlink="http://www.w3.org/1999/xlink" viewBox="0 0 306 306"><defs><style>.cls-1,.cls-2,.cls-3,.cls-4,.cls-5,.cls-6,.cls-7{fill:none;}.cls-8{clip-path:url(#clippath);}.cls-9{fill:#fbb040;}.cls-10{fill:#28aae1;}.cls-2{stroke:#fbb040;}.cls-2,.cls-3,.cls-4,.cls-5{stroke-width:10px;}.cls-2,.cls-3,.cls-4,.cls-5,.cls-6,.cls-7{stroke-linecap:round;stroke-linejoin:round;}.cls-3,.cls-6{stroke:#8dc63f;}.cls-4{stroke:#da1c5c;}.cls-5,.cls-7{stroke:#28aae1;}.cls-6,.cls-7{stroke-width:7px;}</style><clipPath id="clippath"><rect class="cls-1" x="-49.8856" y="-14.7378" width="409.8491" height="409.8491"/></clipPath></defs><path class="cls-2" d="M122.7262,236.701l-3.8253-96.2837m94.0537,96.2837H77.0294"/><g id="Layer_4"><path class="cls-6" d="M254.5322,133.1529c16.646,3.146,17.5669,44.8194,17.5669,44.8194l-22.0858-5.8894-20.7317-3.8563s1.6353-33.1932,13.5636-35.4693"/><path class="cls-7" d="M209.5348,121.5881c23.9494,.3371,15.351,46.5107,15.351,46.5107l-36.9782-32.9963s-1.3726-9.3714,9.6988-13.5144"/><circle class="cls-2" cx="249.0339" cy="122.57" r="11.9283"/><circle class="cls-4" cx="205.1029" cy="109.6598" r="11.9283"/><circle class="cls-7" cx="172.6912" cy="191.9059" r="4.492"/><circle class="cls-7" cx="172.6912" cy="220.1535" r="4.492"/><circle class="cls-7" cx="150.547" cy="205.7821" r="4.492"/><line class="cls-7" x1="153.8659" y1="208.8015" x2="168.8764" y2="217.7902"/><line class="cls-7" x1="154.4237" y1="203.5206" x2="169.0154" y2="194.483"/></g><g class="cls-8"><path class="cls-3" d="M224.8858,168.0988l18.478,2.8221c12.6491,1.9501,25.0504,5.3387,36.9427,10.0828l.0549,.0134h-11.7396c-1.1438,0-2.206,.4835-2.9359,1.2175-.7581,.7608-1.2255,1.8108-1.2255,2.96,0,2.3091,1.8591,4.1762,4.1614,4.1762h25.1468c.3857,0,.7433-.0415,1.0876-.1513,.5799,1.1331,.9509,2.4055,1.0474,3.7476l2.0118,31.8812c.4004,6.417-4.6852,11.8535-11.1061,11.8535h-15.3077c.5639-2.3104,.8679-4.7441,.8679-7.234,0-17.0395-13.7661-30.8713-30.728-30.8713-16.9766,0-30.728,13.8317-30.728,30.8713,0,2.4899,.2893,4.9235,.8545,7.234"/><path class="cls-4" d="M22.0072,176.3831c7.0665-19.0566,18.5391-42.7906,39.878-47.9378,23.0373-5.5557,83.1685-3.6967,101.1229-.6523,9.2229,1.5644,19.9929,4.5619,25.1977,8.2787l36.68,32.0272"/><path class="cls-3" d="M78.2126,236.701c.5679-2.3144,.8719-4.7534,.8719-7.2474,0-17.0717-13.8237-30.9289-30.8713-30.9289s-30.8699,13.8572-30.8699,30.9289c0,.5813,.0268,1.192,.0549,1.7733-3.3618-3.2694-5.2584-7.8849-5.2584-12.6517,0-1.3849,.1527-2.7846,.4983-4.1708,.2491-3.7824,1.2175-11.3901,3.4462-20.5085l15.8984-6.0272c2.7256-1.026,4.4146-3.6163,4.4146-6.3888,0-.8036-.1527-1.6073-.4433-2.4109-1.3287-3.5333-5.2852-5.3066-8.7863-3.9766l-5.9924,2.2729"/><path class="cls-10" d="M48.1779,240.6304c-3.7583,0-7.0987-1.7747-9.2203-4.5231-.4875-.6268-.9054-1.3046-1.2537-2.0184-.7648-1.5483-1.1827-3.2882-1.1827-5.1151,0-6.4196,5.2195-11.6392,11.6566-11.6392,6.4196,0,11.6392,5.2196,11.6392,11.6392,0,1.8269-.4179,3.5668-1.1653,5.1151-.3482,.7139-.7661,1.3916-1.2711,2.0184-2.1216,2.7484-5.462,4.5231-9.2028,4.5231m0-34.1514c-12.4388,0-22.5122,10.0909-22.5122,22.4948,0,1.7747,.1915,3.4797,.6081,5.1151,.0871,.3831,.1915,.7661,.296,1.1478,2.6801,9.3957,11.3606,16.2667,21.6082,16.2667,9.9342,0,18.3548-6.4531,21.3121-15.3961,.2264-.6616,.4179-1.3394,.5746-2.0184,.4166-1.6354,.6081-3.3404,.6081-5.1151,0-12.404-10.056-22.4948-22.4948-22.4948"/><path class="cls-10" d="M241.8313,240.6304c-3.7583,0-7.1161-1.7747-9.2203-4.5231-.4875-.6268-.9054-1.3046-1.2537-2.0184-.7822-1.5483-1.2001-3.2882-1.2001-5.1151,0-6.4196,5.2196-11.6392,11.674-11.6392,6.4022,0,11.6217,5.2196,11.6217,11.6392,0,1.8269-.4179,3.5668-1.1478,5.1151-.3482,.7139-.7661,1.3916-1.2537,2.0184-2.139,2.7484-5.4794,4.5231-9.2202,4.5231m0-34.1514c-12.4388,0-22.5296,10.0909-22.5296,22.4948,0,1.7747,.1915,3.4797,.6081,5.1151,.1567,.6791,.3482,1.3568,.5746,2.0184,2.9573,8.943,11.4128,15.3961,21.347,15.3961s18.3548-6.4531,21.2947-15.3961c.2264-.6616,.4179-1.3394,.5746-2.0184,.434-1.6354,.6255-3.3404,.6255-5.1151,0-12.404-10.0561-22.4948-22.4948-22.4948"/><path class="cls-5" d="M208.7139,178.0077l-25.5767-.4849-10.1846-32.0057c21.1943,5.7151,35.7613,32.4906,35.7613,32.4906Zm-88.2622-1.6702l-8.2157-.1406-47.2251-.8974,5.2169-31.5128c14.4037-2.5274,31.9722-3.4958,48.827-3.3699l1.397,35.9207Zm-50.2226-32.5455l-5.2236,31.5021-7.6786-.1433-7.7121-11.4115s5.7848-16.0122,9.6757-17.5565c3.3658-.9175,7.0464-1.7077,10.9387-2.3908Z"/><path class="cls-2" d="M294.9018,190.0229c-.3617,.1192-.7233,.1795-1.1211,.1795h-25.783c-2.3707,0-4.2699-2.1135-4.2699-4.7052,0-1.2952,.4701-2.4712,1.2483-3.3297,.7594-.8371,1.8456-1.3756,3.0216-1.3756h12.0316l8.6845,3.8279c2.7136,.7581,4.9396,2.7712,6.1879,5.403Z"/><path class="cls-9" d="M37.1555,181.7742c0,2.8864-1.7519,5.5879-4.5927,6.6607l-16.544,6.2911c1.3099-5.3843,3.0431-11.2869,5.2932-17.2445l6.2348-2.368c3.6511-1.3876,7.7644,.4621,9.1479,4.144,.3134,.8331,.4607,1.6836,.4607,2.5167"/><path class="cls-2" d="M37.1555,181.7742c0,2.8864-1.7519,5.5879-4.5927,6.6607l-16.544,6.2911c1.3099-5.3843,3.0431-11.2869,5.2932-17.2445l6.2348-2.368c3.6511-1.3876,7.7644,.4621,9.1479,4.144,.3134,.8331,.4607,1.6836,.4607,2.5167Z"/><path class="cls-5" d="M183.3294,177.5323l-54.5796-1.0246-8.2519-.1406-.5532-.0147-1.413-35.9355c2.3131,.0147,4.5967,.0563,6.8951,.0978,19.8,.4782,37.8266,2.4162,47.6014,4.9999l10.3012,32.0178Z"/></g></svg>