<?xml version="1.0" encoding="utf-8"?>
<!-- Generator: Adobe Illustrator 26.4.0, SVG Export Plug-In . SVG Version: 6.00 Build 0)  -->
<svg version="1.1" id="Layer_1" xmlns="http://www.w3.org/2000/svg" xmlns:xlink="http://www.w3.org/1999/xlink" x="0px" y="0px"
	 viewBox="0 0 352.2 352.2" style="enable-background:new 0 0 352.2 352.2;" xml:space="preserve">
<style type="text/css">
	.st0{fill:none;stroke:#F9B233;stroke-width:10;stroke-linecap:round;stroke-linejoin:round;}
	.st1{fill:none;stroke:#D60B52;stroke-width:10;stroke-linecap:round;stroke-linejoin:round;}
	.st2{fill:none;stroke:#36A9E1;stroke-width:10;stroke-linecap:round;stroke-linejoin:round;}
	.st3{fill:#F9B233;}
	.st4{fill:none;stroke:#F9B233;stroke-width:6;stroke-linecap:round;stroke-linejoin:round;}
	.st5{fill:none;stroke:#95C11F;stroke-width:10;stroke-linecap:round;stroke-linejoin:round;}
	.st6{fill:#FFFFFF;}
</style>
<g id="voiture_electrique">
	<path class="st0" d="M125.8,223.3c-8.7,0-14.9-1.9-14.8-11.6c0.1-9.1,0.3-18.1,0.4-27.2c0.3-14-6-17.2-19.5-16.4"/>
	<path class="st1" d="M91.7,168L91.7,168c-0.1,3.6-2.8,6.3-6.3,6.3h-4.7v-12.7h4.7c1.8,0,3.4,0.8,4.5,1.8
		C91.1,164.6,91.7,166.2,91.7,168L91.7,168z"/>
	<rect x="12.9" y="56.8" class="st2" width="67.7" height="226.8"/>
	<polygon class="st3" points="46.3,174.1 52.7,203.2 30.1,165.2 51,165.9 49.9,138 65.7,175 	"/>
	<g>
		<path class="st4" d="M288.6,142.4h-7.9c0-5-4.3-9.1-9.6-9.1s-9.6,4.1-9.6,9.1h-7.9c0-6.3,3.8-11.9,9.2-14.8c2.5-1.3,5.3-2,8.2-2
			c3.3,0,6.4,0.9,9.1,2.5C285.3,131.1,288.6,136.2,288.6,142.4L288.6,142.4L288.6,142.4z"/>
		<path class="st5" d="M181.1,224.6v34.6c0,1.6-1.3,2.8-2.8,2.8h-21.5c-1.6,0-2.8-1.3-2.8-2.8v-34.6H181.1L181.1,224.6z"/>
		<path class="st5" d="M308.3,224.6v34.6c0,1.6-1.3,2.8-2.8,2.8H284c-1.6,0-2.8-1.3-2.8-2.8v-34.6H308.3z"/>
		<path class="st6" d="M141.2,137.6v4.8C140.5,141,140.4,139.4,141.2,137.6z"/>
		<path class="st1" d="M321.8,127.4c-2.8-6.7-6.2-14.1-10-21c-7.9-14.5-17.5-27.1-26.8-27.1H173.2c-13.8,0-28,26.9-36.8,47.8
			c-7.9,0.5-22.7,3.2-22.7,16.1c0,8.7,6.7,12.7,13.6,14.6v58.5c0,4.5,3.8,8.3,8.3,8.3h186.9c4.5,0,8.3-3.8,8.3-8.3V157
			c5.8-2.2,11-6.2,11-13.7C341.7,131.6,329.9,128.3,321.8,127.4L321.8,127.4L321.8,127.4z"/>
		<path class="st1" d="M152.6,176.4c0-7.8,6.2-14,14-14c7.8,0,14,6.2,14,14s-6.2,14-14,14C158.8,190.4,152.6,184.2,152.6,176.4z"/>
		<path class="st1" d="M168.3,194.6h119.3c1,0,1.8,0.8,1.8,1.8V210c0,1-0.8,1.8-1.8,1.8H168.3c-1,0-1.8-0.8-1.8-1.8v-13.6
			C166.5,195.5,167.4,194.6,168.3,194.6z"/>
		<path class="st1" d="M291.3,190.4c-7.8,0-14-6.2-14-14s6.2-14,14-14s14,6.2,14,14S299.1,190.4,291.3,190.4L291.3,190.4z"/>
		<path class="st2" d="M304.1,147.2c-0.1,0.1-0.2,0.1-0.4,0.1c-0.6,0.2-1.1,0.5-1.7,0.6l0,0c-0.2,0-0.4,0.1-0.6,0.1s-0.5,0-0.7,0
			h-53.5c0,0,0,0,0,0.1h-33.3c0,0,0,0,0-0.1h-59.5c-3.2,0-7.9-2.1-9.4-5.5c-0.6-1.3-0.7-2.8,0-4.5c0.2-0.5,0.5-0.9,0.7-1.3
			l20.1-33.7c0,0,5.8-11.2,12.6-11.2h98.7h0.1c0.1,0,0.2,0,0.4,0.1l0.4,0.1c0.1,0,0.2,0.1,0.5,0.1c0.2,0.1,0.4,0.1,0.5,0.2
			c0.4,0.1,0.6,0.4,1,0.6c0.1,0.1,0.4,0.2,0.5,0.4c0.1,0.1,0.4,0.2,0.5,0.4c1.1,0.9,2.2,1.9,3.3,3c0.1,0.1,0.4,0.4,0.5,0.5
			c0.1,0.1,0.4,0.4,0.5,0.5c0.4,0.4,0.7,0.9,1.1,1.2c0.2,0.2,0.5,0.5,0.6,0.7c0.4,0.5,0.7,1,1.1,1.3c0.1,0.1,0.2,0.4,0.4,0.4
			c0.5,0.6,0.7,1.1,0.9,1.2l0,0l0,0l18.4,30.8l1.7,2.9C312,140.3,308.1,145.2,304.1,147.2L304.1,147.2L304.1,147.2z"/>
		<path class="st6" d="M310.2,147.3c-0.6,0.3-1.2,0.5-1.8,0.6l0,0C308.9,147.8,309.6,147.6,310.2,147.3L310.2,147.3z"/>
		<path class="st0" d="M180.5,176.4c0,7.8-6.2,14-14,14c-7.8,0-14-6.2-14-14s6.2-14,14-14C174.3,162.4,180.5,168.7,180.5,176.4z"/>
		<path class="st0" d="M305.3,176.4c0,7.8-6.2,14-14,14s-14-6.2-14-14s6.2-14,14-14S305.3,168.7,305.3,176.4z"/>
		<path class="st6" d="M310.2,147.3c-0.6,0.3-1.2,0.5-1.8,0.6l0,0C308.9,147.8,309.6,147.6,310.2,147.3L310.2,147.3z"/>
		<path class="st6" d="M310.2,147.3c-0.6,0.3-1.2,0.5-1.8,0.6l0,0C308.9,147.8,309.6,147.6,310.2,147.3L310.2,147.3z"/>
	</g>
</g>
</svg>
