<?xml version="1.0" encoding="utf-8"?>
<!-- Generator: Adobe Illustrator 26.4.0, SVG Export Plug-In . SVG Version: 6.00 Build 0)  -->
<svg version="1.1" id="Layer_1" xmlns="http://www.w3.org/2000/svg" xmlns:xlink="http://www.w3.org/1999/xlink" x="0px" y="0px"
	 viewBox="0 0 352.2 352.2" style="enable-background:new 0 0 352.2 352.2;" xml:space="preserve">
<style type="text/css">
	.st0{fill:none;stroke:#95C11F;stroke-width:12;stroke-linecap:round;stroke-linejoin:round;}
	.st1{fill:none;stroke:#36A9E1;stroke-width:12;stroke-linecap:round;stroke-linejoin:round;}
	.st2{fill:none;stroke:#F9B233;stroke-width:12;stroke-linecap:round;stroke-linejoin:round;}
	.st3{fill:none;stroke:#D60B52;stroke-width:12;stroke-linecap:round;stroke-linejoin:round;}
	.st4{fill:#D60B52;}
	.st5{fill:#F9B233;}
</style>
<g id="velo_electrique">
	<g>
		<path class="st0" d="M150,275.4c0,32.2-25.5,58.3-56.7,58.3s-56.7-26.1-56.7-58.3s25.5-58.3,56.7-58.3S150,243.3,150,275.4z
			 M342,275.4c0,32.2-25.5,58.3-56.7,58.3s-56.7-26.1-56.7-58.3s25.5-58.3,56.7-58.3S342,243.3,342,275.4z"/>
		<path class="st1" d="M96.6,266.2c1.4-2.7,49.3-73.1,49.3-73.1h95.6l43.4,84.5"/>
	</g>
	<path class="st2" d="M200.9,261.9l42.8-67.2 M130.5,163.6l49,96.9"/>
	<polyline class="st3" points="285.4,278.8 225.8,160.6 266.1,161.9 	"/>
	<path class="st0" d="M264.9,161.8c7.7,0,13.9,6,13.9,13.5c0,7.5-6.3,13.5-13.9,13.5c-3.7,0-7.2-1.4-9.7-3.9"/>
	<line class="st1" x1="158.7" y1="163.5" x2="114.8" y2="163.5"/>
	<path class="st2" d="M92.3,261.8l99-8.2 M92.3,289.1l99,8.2"/>
	<path class="st4" d="M215.6,275.4c0,14.8-11.9,26.7-26.7,26.7s-26.7-11.9-26.7-26.7s11.9-26.7,26.7-26.7S215.6,260.8,215.6,275.4"
		/>
	<line class="st1" x1="191.4" y1="273.1" x2="177.5" y2="305.9"/>
	<path class="st4" d="M114,275.4c0,10.7-8.7,19.5-19.5,19.5s-19.5-8.7-19.5-19.5c0-10.7,8.7-19.5,19.5-19.5S114,264.6,114,275.4"/>
	<path class="st2" d="M110.2,163.8c-9.6,0-16.5-2.1-16.3-12.9c0.1-10,0.3-20.1,0.4-30.1c0.3-15.5-6.6-19.1-21.6-18.2"/>
	<path class="st4" d="M72.5,102.6L72.5,102.6c-0.1,4-3.2,7-7,7h-5.2v-14h5.2c2,0,3.7,0.9,5,2C71.8,98.8,72.5,100.6,72.5,102.6
		L72.5,102.6z"/>
	<polygon class="st5" points="35.8,73.9 47.8,129.4 5,56.9 44.8,58.4 42.7,5 72.8,75.5 	"/>
</g>
</svg>
