<?xml version="1.0" encoding="utf-8"?>
<!-- Generator: Adobe Illustrator 26.4.0, SVG Export Plug-In . SVG Version: 6.00 Build 0)  -->
<svg version="1.1" id="Layer_1" xmlns="http://www.w3.org/2000/svg" xmlns:xlink="http://www.w3.org/1999/xlink" x="0px" y="0px"
	 viewBox="0 0 200 200" style="enable-background:new 0 0 200 200;" xml:space="preserve">
<style type="text/css">
	.st0{fill:none;stroke:#95C11F;stroke-width:13;stroke-linecap:round;stroke-linejoin:round;}
	.st1{fill:none;stroke:#95C11F;stroke-width:12;stroke-linecap:round;stroke-linejoin:round;}
	.st2{fill:none;stroke:#F9B233;stroke-width:7;stroke-linecap:round;stroke-linejoin:round;}
	.st3{fill:none;stroke:#D60B52;stroke-width:7;stroke-linecap:round;stroke-linejoin:round;}
	.st4{fill:none;stroke:#36A9E1;stroke-width:7;stroke-linecap:round;stroke-linejoin:round;}
	.st5{fill:#F9B233;}
</style>
<g id="FAT_BIKE">
	<g>
		<path class="st0" d="M76.5,115.5c0,19.3-15.3,35-34.1,35s-34.1-15.7-34.1-35s15.3-35,34.1-35S76.5,96.2,76.5,115.5L76.5,115.5
			L76.5,115.5z"/>
		<path class="st1" d="M191.8,115.5c0,19.3-15.3,35-34.1,35s-34.1-15.7-34.1-35s15.3-35,34.1-35S191.8,96.2,191.8,115.5z"/>
		<path class="st2" d="M44.4,110C45.3,108.4,74,66.1,74,66.1h57.4"/>
		<path class="st3" d="M107,107.3L132.7,67 M64.8,48.3l29.4,58.2"/>
		<polyline class="st4" points="159.4,117.5 123.5,46.5 147.7,47.3 		"/>
		<line class="st2" x1="81.7" y1="48.2" x2="55.3" y2="48.2"/>
		<path class="st3" d="M41.8,107.3l59.5-4.9 M41.8,123.7l59.5,4.9"/>
		<path class="st5" d="M115.9,115.5c0,8.8-7.2,16-16,16s-16-7.2-16-16s7.2-16,16-16S115.9,106.7,115.9,115.5"/>
		<line class="st2" x1="101.3" y1="114.1" x2="93" y2="133.8"/>
		<path class="st5" d="M54.9,115.5c0,6.5-5.2,11.7-11.7,11.7s-11.7-5.2-11.7-11.7s5.2-11.7,11.7-11.7S54.9,109,54.9,115.5"/>
	</g>
</g>
</svg>
