<?xml version="1.0" encoding="UTF-8"?><svg id="Calque_1" xmlns="http://www.w3.org/2000/svg" viewBox="0 0 200 200"><defs><style>.cls-1{stroke:#da1a5d;}.cls-1,.cls-2,.cls-3,.cls-4{fill:none;stroke-linecap:round;stroke-miterlimit:10;stroke-width:10px;}.cls-2{stroke:#e9a944;}.cls-3{stroke:#8dc043;}.cls-4{stroke:#3caae0;}</style></defs><path class="cls-4" d="M92.1574,70.4191s9.4504-30.0869,38.3923-38.3461c0,0,3.4075-.8508,8.8137-1.4269,37.9038-4.0385,66.0701,34.6018,50.7029,69.4438-.1475,.3344-.298,.6697-.4515,1.006-15.3569,33.6266-89.8146,82.806-89.8146,82.806"/><path class="cls-1" d="M107.4426,70.4191s-9.4504-30.0869-38.3923-38.3461c0,0-3.4075-.8508-8.8137-1.4269C22.3329,26.6076-5.8334,65.248,9.5338,100.09c.1475,.3344,.298,.6697,.4515,1.006,15.3569,33.6266,89.8147,82.806,89.8147,82.806"/><path class="cls-2" d="M107.4426,70.4191s3.3308-14.1749,23.9136-20.0487c0,0,2.4233-.6051,6.2681-1.0148,26.9564-2.8721,46.9877,24.6081,36.0588,49.387-.1049,.2378-.2119,.4763-.3211,.7154-10.9215,23.9145-74.1885,65.3513-74.1885,65.3513"/><path class="cls-3" d="M92.1574,70.4191s-6.1923-17.1708-26.7752-23.0446c0,0-2.4233-.6051-6.2681-1.0148-26.9564-2.8721-46.9877,24.6081-36.0588,49.387,.1049,.2378,.2119,.4763,.3211,.7154,10.9215,23.9145,75.7971,68.3472,75.7971,68.3472"/></svg>