<?xml version="1.0" encoding="utf-8"?>
<!-- Generator: Adobe Illustrator 26.4.0, SVG Export Plug-In . SVG Version: 6.00 Build 0)  -->
<svg version="1.1" id="Layer_1" xmlns="http://www.w3.org/2000/svg" xmlns:xlink="http://www.w3.org/1999/xlink" x="0px" y="0px"
	 viewBox="0 0 192.7 140.6" style="enable-background:new 0 0 192.7 140.6;" xml:space="preserve">
<style type="text/css">
	.st0{fill:none;stroke:#F9B233;stroke-width:10;stroke-linecap:round;stroke-linejoin:round;}
	.st1{fill:none;stroke:#D60B52;stroke-width:8;stroke-linecap:round;stroke-linejoin:round;}
	.st2{fill:none;stroke:#36A9E1;stroke-width:8;stroke-linecap:round;stroke-linejoin:round;}
	.st3{fill:none;}
</style>
<g id="patin_a_glace">
	<g>
		<path class="st0" d="M23.1,132.9c11.1,0,22.3,0,33.4,0h120.3c2.1,0,3-1,3-3.1c0-0.5,0-1-0.1-1.4c-1.4-8.1-7.5-13.1-15.7-13.1
			c-3.5,0-7.1,0-10.6,0c-3.4,0-6-2.5-6.1-5.9c0-0.9,0-1.7,0-2.6c0-0.4,0-0.8,0-1h-13.5c0.1,0.5,0.1,1.1,0.1,2.1v1.3
			c-0.1,3.6-2.5,6.1-6.2,6.1c-18.5,0-37,0-55.5,0c-3.4,0-5.9-2.5-6-6c0-0.9,0.1-1.9,0-2.8c0-0.3,0-0.6,0-0.8H52.6c0,0.1,0,0.3,0,0.4
			c-0.1,0.9,0,1.8,0,2.8c0,3.8-2.6,6.4-6.4,6.4c-3.6,0-7.2,0-10.8,0c-4.8,0-7.4-3.1-6.5-7.9c0.1-0.3,0.1-0.6,0.1-0.9
			c0-0.3,0-0.6,0.1-0.8H15.7c-0.8,5.1-1.7,10.2-2.5,15.2C12.1,127.6,16.4,132.9,23.1,132.9L23.1,132.9L23.1,132.9z"/>
		<g>
			<path class="st1" d="M161.4,87.5v11.1c-4.3,0.1-141.9-0.1-146.1,0.1c0.3-5.8-0.5-11.7,0.4-17.4v0.4c0.7-5.7,2.1-29.4,6.3-31.4
				c15.1,0.1,28.1-13.2,28-28.3c0.7-2.5-1.7-9.9,1.7-9.8h18.3c3.2,0,2.2,6.3,3.7,8.6c-1.9,7.4-16.4,2.1-8,14
				c1.5,3.7,10.7-6.3,12.5-2.8c5.9,6.8-2.2,9.4-6.2,14.5c-1.1,2.3,3.7,4.3,4.9,6.4c6.2,0.2,6.9-13.4,13.8-4
				c1.8,7.5-12.7,11.4,0.7,16.4c3.4,2.3,5.3-10.9,8.7-9.6c7.8,2.1,2.6,8.6,2.2,14.3c-0.3,1.2-0.1,1.6,1.1,1.8
				c11.2,3.2,6.9-0.8,9.7-9.6C129.9,59.4,159.3,64.7,161.4,87.5L161.4,87.5L161.4,87.5z"/>
			<path class="st2" d="M40.9,18.7c0.8,9-3.6,18-12.4,21.3c-1.7,0.4-6.4,2.8-6.7,0.1c1-8.8,1.5-17.6,1.4-26.4
				c1.4-3.2,8.9-0.6,12.2-1.4C41.9,11.6,41,13.2,40.9,18.7L40.9,18.7L40.9,18.7z"/>
			<polyline class="st3" points="15.7,81.3 15.7,81.2 15.7,81.1 			"/>
		</g>
	</g>
</g>
</svg>
