<?xml version="1.0" encoding="utf-8"?>
<!-- Generator: Adobe Illustrator 26.4.0, SVG Export Plug-In . SVG Version: 6.00 Build 0)  -->
<svg version="1.1" id="Layer_1" xmlns="http://www.w3.org/2000/svg" xmlns:xlink="http://www.w3.org/1999/xlink" x="0px" y="0px"
	 viewBox="0 0 351.7 351.7" style="enable-background:new 0 0 351.7 351.7;" xml:space="preserve">
<style type="text/css">
	.st0{fill:none;stroke:#95C11F;stroke-width:12;stroke-linecap:round;stroke-linejoin:round;}
	.st1{fill:none;stroke:#D60B52;stroke-width:12;stroke-linecap:round;stroke-linejoin:round;}
	.st2{fill:none;stroke:#36A9E1;stroke-width:12;stroke-linecap:round;stroke-linejoin:round;}
	.st3{fill:none;stroke:#F9B233;stroke-width:12;stroke-linecap:round;stroke-linejoin:round;}
	.st4{fill:#F9B233;}
</style>
<g id="métro">
	<path class="st0" d="M265.3,223.1h-14.5c0-9.5-7.7-17.2-17.2-17.2c-9.5,0-17.2,7.7-17.2,17.2h-14.5c0-9.6,4.2-18.1,11-24
		c5.6-4.8,12.7-7.7,20.6-7.7C251.1,191.4,265.3,205.6,265.3,223.1L265.3,223.1z"/>
	<path class="st1" d="M305,78.9H55v184.9c0-3.5,2.9-6.4,6.4-6.4h13.4c5.1-10.5,15.9-17.8,28.5-17.8s23.4,7.3,28.5,17.8h96.4
		c5.1-10.5,15.9-17.8,28.5-17.8c12.6,0,23.4,7.3,28.5,17.8h13.4c3.5,0,6.4,2.8,6.4,6.4L305,78.9L305,78.9L305,78.9z M281.8,200.6
		c0,12.4-6.4,22.5-14.3,22.5H92.4c-7.9,0-14.3-10.1-14.3-22.5v-67.5c0-12.4,6.4-22.5,14.3-22.5h175.1c0.3,0,0.6,0,0.9,0
		c7.5,0.4,13.4,6.7,13.4,14.2L281.8,200.6L281.8,200.6L281.8,200.6z"/>
	<path class="st0" d="M305,277v49.5c0,3.5-2.9,6.4-6.4,6.4H61.4c-3.5,0-6.4-2.9-6.4-6.4V277c0,3.8,3.1,6.9,6.9,6.9h12.3
		c4.8,11.3,16.1,19.1,29.1,19.1s24.3-7.9,29.1-19.1h95.1c4.8,11.3,16.1,19.1,29.1,19.1c13,0,24.3-7.9,29.1-19.1h12.3
		C301.8,283.9,304.9,280.8,305,277L305,277z"/>
	<path class="st2" d="M71.6,271.3c0,4.5,0.9,8.8,2.6,12.6H61.8c-3.8,0-6.9-3.1-6.9-6.9v-13.2c0-3.5,2.9-6.4,6.4-6.4h13.4
		C72.8,261.7,71.6,266.4,71.6,271.3L71.6,271.3L71.6,271.3z"/>
	<path class="st2" d="M224.9,271.3c0,4.5,0.9,8.8,2.6,12.6h-95.1c1.6-3.8,2.6-8.2,2.6-12.6c0-5-1.2-9.6-3.2-13.9h96.4
		C226.1,261.7,224.9,266.4,224.9,271.3L224.9,271.3L224.9,271.3z"/>
	<path class="st2" d="M305,263.7v13.2c0,3.8-3.1,6.9-6.9,6.9h-12.3c1.6-3.8,2.6-8.2,2.6-12.6c0-5-1.2-9.6-3.2-13.9h13.4
		C302.1,257.4,305,260.2,305,263.7L305,263.7L305,263.7z"/>
	<path class="st2" d="M305,46.4v32.4H55V46.4c0-3.2,2.2-5.8,5-6.6c2.6-2.3,6-3.7,9.6-3.7h51.3C122.6,26.7,132.4,8,180.8,8
		s58.2,18.7,59.9,28.2h49.7c3.7,0,7,1.3,9.6,3.7C302.8,40.7,305,43.4,305,46.4L305,46.4L305,46.4z"/>
	<path class="st3" d="M131.8,257.4c-5.1-10.5-15.9-17.8-28.5-17.8s-23.4,7.3-28.5,17.8c-2,4.2-3.2,8.9-3.2,13.9
		c0,4.5,0.9,8.8,2.6,12.6c4.8,11.3,16.1,19.1,29.1,19.1s24.3-7.9,29.1-19.1c1.6-3.8,2.6-8.2,2.6-12.6
		C135,266.4,133.9,261.7,131.8,257.4L131.8,257.4z M115,283.9c-3.1,2.9-7.2,4.7-11.7,4.7c-4.5,0-8.6-1.8-11.7-4.7
		c-3.4-3.1-5.6-7.6-5.6-12.6c0-5.7,2.8-10.8,7-13.9c2.8-2,6.3-3.4,10.1-3.4s7.3,1.2,10.2,3.4c4.2,3.1,7,8.2,7,13.9
		C120.4,276.3,118.4,280.8,115,283.9L115,283.9z"/>
	<path class="st4" d="M120.4,271.3c0,5-2,9.5-5.6,12.6c-3.1,2.9-7.2,4.7-11.7,4.7c-4.5,0-8.6-1.8-11.7-4.7
		c-3.4-3.1-5.6-7.6-5.6-12.6c0-5.7,2.8-10.8,7-13.9c2.8-2,6.3-3.4,10.1-3.4c3.8,0,7.3,1.2,10.2,3.4
		C117.8,260.5,120.4,265.6,120.4,271.3L120.4,271.3z"/>
	<path class="st3" d="M285.1,257.4c-5.1-10.5-15.9-17.8-28.5-17.8c-12.6,0-23.4,7.3-28.5,17.8c-2,4.2-3.2,8.9-3.2,13.9
		c0,4.5,0.9,8.8,2.6,12.6c4.8,11.3,16.1,19.1,29.1,19.1c13,0,24.3-7.9,29.1-19.1c1.6-3.8,2.6-8.2,2.6-12.6
		C288.3,266.4,287.2,261.7,285.1,257.4z M268.3,283.9c-3.1,2.9-7.2,4.7-11.7,4.7c-4.5,0-8.6-1.8-11.7-4.7c-3.4-3.1-5.6-7.6-5.6-12.6
		c0-5.7,2.8-10.8,7-13.9c2.8-2,6.3-3.4,10.1-3.4s7.3,1.2,10.1,3.4c4.2,3.1,7.2,8.2,7.2,13.9C273.9,276.3,271.8,280.8,268.3,283.9
		L268.3,283.9z"/>
	<path class="st4" d="M273.9,271.3c0,5-2,9.5-5.6,12.6c-3.1,2.9-7.2,4.7-11.7,4.7c-4.5,0-8.6-1.8-11.7-4.7
		c-3.4-3.1-5.6-7.6-5.6-12.6c0-5.7,2.8-10.8,7-13.9c2.8-2,6.3-3.4,10.1-3.4s7.3,1.2,10.1,3.4C271.1,260.5,273.9,265.6,273.9,271.3
		L273.9,271.3z"/>
</g>
</svg>
