<?xml version="1.0" encoding="utf-8"?>
<!-- Generator: Adobe Illustrator 26.4.0, SVG Export Plug-In . SVG Version: 6.00 Build 0)  -->
<svg version="1.1" id="Layer_1" xmlns="http://www.w3.org/2000/svg" xmlns:xlink="http://www.w3.org/1999/xlink" x="0px" y="0px"
	 viewBox="0 0 351.7 351.7" style="enable-background:new 0 0 351.7 351.7;" xml:space="preserve">
<style type="text/css">
	.st0{fill:none;stroke:#D60B52;stroke-width:12;stroke-linecap:round;stroke-linejoin:round;}
	.st1{fill:none;stroke:#95C11F;stroke-width:12;stroke-linecap:round;stroke-linejoin:round;}
	.st2{fill:none;stroke:#36A9E1;stroke-width:12;stroke-linecap:round;stroke-linejoin:round;}
	.st3{fill:none;}
	.st4{fill:none;stroke:#F9B233;stroke-width:12;stroke-linecap:round;stroke-linejoin:round;}
</style>
<g id="patin_roulette">
	<g>
		<path class="st0" d="M325.1,183.1v23.1c-9,0.4-295.5-0.2-304,0.2c0.5-12.1-1.1-24.4,0.7-36.3v0.9c1.4-11.9,4.3-61.3,13-65.3
			c31.5,0.2,58.4-27.5,58.2-58.9c1.4-5.2-3.6-20.6,3.4-20.4h38.2c6.7,0,4.5,13.2,7.6,17.9c-4,15.4-34.2,4.3-16.8,29.3
			c3.3,7.6,22.2-13,26-6c12.3,14.3-4.5,19.5-12.8,30.2c-2.4,4.9,7.8,9,10.1,13.2c13,0.5,14.5-28,28.6-8.3
			c3.8,15.6-26.4,23.7,1.4,34.2c7.1,4.7,11-22.6,18.1-19.9c16.1,4.3,5.4,17.9,4.5,29.8c-0.5,2.5-0.2,3.3,2.4,3.8
			c23.3,6.7,14.5-1.8,20.3-19.9C259.3,124.7,320.6,135.8,325.1,183.1L325.1,183.1L325.1,183.1z"/>
		<path class="st1" d="M173.2,225.3H313c10.3-1.4-4.9,16.6-5.4,21.5c-2.4,17.5-32-29.8-75.4,8c-2.5,2.9-3.4,1.4-6-0.5
			c-3.4-4.5-8.1-4.7-13.4-4.7c-27.8,0.2-55.9,0.2-83.7,0c-8.1-0.7-10.1,11.8-17.4,3.1c-19-16.5-48.1-17.2-67.6-1.4
			c-5.6,4-10.7-18.8-14.5-23c-1.1-2.2-0.5-2.9,1.8-2.9C78.8,225.3,126,225.5,173.2,225.3L173.2,225.3L173.2,225.3z"/>
		<path class="st2" d="M74.1,39.9c1.6,18.8-7.4,37.4-25.7,44.3C44.8,85,35.3,90,34.5,84.4c2-18.3,3.1-36.7,3.1-55
			c2.9-6.7,18.4-1.3,25.3-2.9C76.1,25.1,74.3,28.5,74.1,39.9L74.1,39.9L74.1,39.9z"/>
		<polyline class="st3" points="21.7,170.3 21.7,170.1 21.9,169.8 		"/>
		<circle class="st4" cx="267.4" cy="295.4" r="36"/>
		<circle class="st4" cx="75.9" cy="295.4" r="36"/>
	</g>
</g>
</svg>
