<?xml version="1.0" encoding="utf-8"?>
<!-- Generator: Adobe Illustrator 26.4.0, SVG Export Plug-In . SVG Version: 6.00 Build 0)  -->
<svg version="1.1" id="Layer_1" xmlns="http://www.w3.org/2000/svg" xmlns:xlink="http://www.w3.org/1999/xlink" x="0px" y="0px"
	 viewBox="0 0 200 200" style="enable-background:new 0 0 200 200;" xml:space="preserve">
<style type="text/css">
	.st0{fill:none;stroke:#F9B233;stroke-width:10;stroke-linecap:round;stroke-linejoin:round;}
	.st1{fill:none;}
	.st2{fill:none;stroke:#95C11F;stroke-width:10;stroke-linecap:round;stroke-linejoin:round;}
	.st3{fill:none;stroke:#36A9E1;stroke-width:10;stroke-linecap:round;stroke-linejoin:round;}
</style>
<g id="course">
	<path class="st0" d="M183.9,87.9c0.1,6.6-5.6,8.8-8.6,8.8c-10.3,0.1-20.5,0.1-30.8,0c-3.2,0-5.8-1.5-7.7-4.3
		c-2.5-3.8-5.1-7.6-7.6-11.4l16.2-11.1c1.9,3.1,3.9,6.1,5.8,9.2c0.4,0.6,0.8,0.8,1.5,0.8c2.1,0,21.1,0,22.2,0
		C178.7,80,183.8,81.8,183.9,87.9L183.9,87.9L183.9,87.9z"/>
	<path class="st0" d="M70.7,46.3h4.6v16.3c-1.3,0-2.5,0-3.8,0c-1,0-1.6,0.3-2.1,1.1C63.2,71.9,57,80.1,50.8,88.4
		c-2,2.7-4.5,4.2-7.9,4.3c-4,0-8.3-3.7-6.4-9.5c0.5-1.6,1.9-3,2.9-4.5c1.4-2,2.7-4,4.2-5.9c5.1-6.9,10.2-13.8,15.3-20.6
		C61.8,48.3,65.8,46.3,70.7,46.3L70.7,46.3L70.7,46.3z"/>
	<g>
		<path class="st0" d="M131.4,40.8c-9.7,0-17.8-7.9-17.9-17.6c-0.1-9.9,7.8-18,17.5-18.1c11.2-0.1,18.4,9.5,17.9,17.2
			C149.4,34,140,40.8,131.4,40.8z"/>
		<path class="st1" d="M148.9,22.4c0.5,11.6-8.9,18.4-17.5,18.4c-9.7,0-17.8-7.9-17.9-17.6c-0.1-9.9,7.8-18,17.5-18.1
			C142.2,5.1,149.5,14.6,148.9,22.4z"/>
	</g>
	<path class="st2" d="M128.5,122.8c-3.1,0.4-5.4,1.5-7.1,2.7c-6.7,4.7-5.1,12.3-12.6,16.2c-4.1,2.1-9.5,2.4-14,1
		c4.9-2.2,9.8-4.4,14.7-6.6l0,0c0.6-0.3,0.6-1,0.1-1.3c-1.8-1-3.6-2.1-5.4-3c-6.5-3.6-13-7.1-19.4-10.8c-1.2,1.8-2.6,3.7-3.7,5.1
		l0,0c-7.8,1.6-23,18.2-27.5,23.2c-6.7,7.5-9.2,12.7-16.8,18.5c-4.8,3.6-9.7,6.1-14.3,7.8c3.5-5.6,7-11.1,10.6-16.7
		c10.1-16,20.3-32,30.4-48c0.1-0.2,1.4-2.1,2.9-4.3c1.6-2.2,2.6-4.8,3.2-7.4l36.4,7.3c-0.1,0.3,0,0.7,0.3,0.9c0.5,0.4,1,0.7,1.5,1.1
		c4.2,2.8,8.4,5.7,12.6,8.5C122.8,118.9,125.7,120.8,128.5,122.8L128.5,122.8L128.5,122.8z"/>
	<path class="st2" d="M80.9,126c-0.7,0.9-1.2,1.5-1.6,2c-16.4,21-32.7,42.1-49.1,63c-1.3,1.6-2.7,3.2-4.9,3.8h-3.3c-3-1-5-3-5.8-6.3
		l-0.1-2.9c1.3-3.1,3.3-5.7,5.1-8.5c0.3-0.5,0.7-1.1,1-1.6c4.6-1.7,9.6-4.2,14.3-7.8c7.7-5.8,10.2-11.1,16.8-18.5
		C57.8,144.2,73,127.7,80.9,126L80.9,126L80.9,126z"/>
	<path class="st2" d="M137.5,139.1c-1,5.9-4.7,9.3-10.3,11.1c-13.1,4.1-26.1,8.2-39.2,12.3c-3.6,1.1-7.5-0.2-9.1-3.4
		c-2.1-4.2-1.2-8.6,3.7-10.9c4-1.8,8.1-3.7,12.1-5.5c4.5,1.4,9.9,1.2,14-1c7.5-3.9,5.9-11.5,12.6-16.2c1.7-1.2,4-2.2,7.1-2.7
		c1.1,0.7,2.2,1.5,3.3,2.2c3.3,2.3,5.4,5.3,5.9,9.3C137.9,135.9,137.8,137.5,137.5,139.1L137.5,139.1L137.5,139.1z"/>
	<path class="st3" d="M145.5,70l-16.2,11.1c-1-1.6-2.1-3.1-3.1-4.7c-1-1.4-2-1.4-2.9,0.1c-4.8,8.3-9.7,16.5-14.6,24.8
		c-1,1.7-2,3.4-3,5.2c0,0,0,0,0,0.1l-36.4-7.3c0.1-0.6,0.2-1.2,0.3-1.8c0.3-2.8,1.3-5.6,2.7-8.2c6.2-4,11.7-5.7,16.1-6.3
		c9.4-1.5,15.5,1.2,22.3-3.8c7-5.1,5.5-11.6,12-17.1c2.8-2.4,7.3-4.7,14.7-4.9C140,61.5,142.7,65.8,145.5,70L145.5,70L145.5,70z"/>
	<path class="st3" d="M137.4,57.1c-7.4,0.3-11.9,2.6-14.7,4.9c-6.6,5.5-5.1,12-12,17.1c-6.8,4.9-12.9,2.3-22.3,3.8
		c-4.4,0.7-9.9,2.4-16.1,6.3c0.1-0.2,0.2-0.4,0.4-0.6c1.5-2.5,3.2-5,4.7-7.6c3.1-5.3,6.2-10.6,9.3-15.9c0.8-1.4,0.1-2.6-1.6-2.6
		h-9.7V46.3h46.3c6,0,10.6,2.5,13.7,7.6C136,55,136.7,56,137.4,57.1L137.4,57.1L137.4,57.1z"/>
</g>
</svg>
