<?xml version="1.0" encoding="utf-8"?>
<!-- Generator: Adobe Illustrator 26.4.0, SVG Export Plug-In . SVG Version: 6.00 Build 0)  -->
<svg version="1.1" id="Layer_1" xmlns="http://www.w3.org/2000/svg" xmlns:xlink="http://www.w3.org/1999/xlink" x="0px" y="0px"
	 viewBox="0 0 193.7 141.7" style="enable-background:new 0 0 193.7 141.7;" xml:space="preserve">
<style type="text/css">
	.st0{fill:none;stroke:#36A9E1;stroke-width:7;stroke-linecap:round;stroke-linejoin:round;}
	.st1{fill:#D60B52;}
	.st2{fill:none;stroke:#F9B233;stroke-width:7;stroke-linecap:round;stroke-linejoin:round;}
	.st3{fill:none;stroke:#95C11F;stroke-width:7;stroke-linecap:round;stroke-linejoin:round;}
</style>
<g id="ski_de_fond">
	<path class="st0" d="M168.7,37.1c-6.1-10.9-15,4.7-20.9,9.1c-1.3,1-3.2,0.6-4-0.9c-3.3-6.1-6.9-16.8-15.7-19.5
		C87.5,14,95.6,10,81.8,48.3c-0.1,0.2,0,2.7,4.1,4.2c10.4,3.2,10.5-14.2,14.7-20.5c-0.6-2.2,12,2,10,3.1
		c-12.5,13.2-19,21.3-20.8,27.6c-0.1,0.2-0.1,0.3-0.2,0.5c-1.9,3.7-14,31.3-18.1,37.3c-0.1,0.1-0.1,0.2-0.2,0.3
		c-6.3,7.3-31,18.8-17.9,28.4c0.5,0.3,1,0.5,1.6,0.5h3.5c0.5,0,1.1-0.2,1.5-0.5c8.4-5.5,15.3-13.2,23.5-19.2
		c0.2-0.2,0.4-0.3,0.5-0.5c4.4-6,10-17,14.5-25c0.8-1.5,2.8-1.8,4.1-0.7c4.6,3.8,10.2,8.4,16.7,14.2c0.5,0.5,0.8,1.1,0.9,1.8
		c0.6,5.6-4.4,14.4-6.2,21.7c-1.6,6.5,4.7,12.4,10.8,9.7c1.6-0.7,2.9-1.9,3.3-3.6c8.5-34.2,16.9-27.7-11.8-56.3c-0.8-0.8-1-2-0.6-3
		c2.2-5.1,12.9-14.4,15.2-18.5c0.8-1,1.1-1,1.8,0.1c7.8,12.4,9.4,17.7,16.7,11.9c0.3-0.2,16.8-17.3,18.1-18.3
		C169.2,41.6,169.7,39.1,168.7,37.1L168.7,37.1L168.7,37.1z"/>
	<path class="st1" d="M187.6,129.2c-0.1,3.6-1.9,8.1-6.1,7.9c-56.5,0-112.9-0.1-169.4,0c-2.1,0-2.1,0-2.2-2.1c0-1.6,0.8-2.4,2.4-2.4
		c2.4,0,169.8,3,170.5-3.3c0-2.7-0.2-2.5,2.6-2.5C187.6,126.9,187.9,127.2,187.6,129.2L187.6,129.2z"/>
	<path class="st2" d="M141.3,28.6c-16.3-0.3-15.7-24.3,0.4-24C156.3,5,157,28.5,141.3,28.6z"/>
	<line class="st3" x1="132.5" y1="128.3" x2="162.2" y2="42.1"/>
	<line class="st3" x1="6" y1="77.3" x2="87.2" y2="49.3"/>
</g>
</svg>
