<?xml version="1.0" encoding="utf-8"?>
<!-- Generator: Adobe Illustrator 26.4.0, SVG Export Plug-In . SVG Version: 6.00 Build 0)  -->
<svg version="1.1" id="Layer_1" xmlns="http://www.w3.org/2000/svg" xmlns:xlink="http://www.w3.org/1999/xlink" x="0px" y="0px"
	 viewBox="0 0 154.4 197.8" style="enable-background:new 0 0 154.4 197.8;" xml:space="preserve">
<style type="text/css">
	.st0{fill:none;stroke:#F9B233;stroke-width:9;stroke-linecap:round;stroke-linejoin:round;}
	.st1{fill:none;stroke:#95C11F;stroke-width:8;stroke-linecap:round;stroke-linejoin:round;}
	.st2{fill:none;stroke:#36A9E1;stroke-width:8;stroke-linecap:round;stroke-linejoin:round;}
</style>
<g id="raquette">
	<g>
		<path class="st0" d="M39.3,182.3c-5.8-1.9-22.4-14.3-28.7-19.1c-1-0.7-0.6-2,0.6-2.1c7.9-0.7,29.1-2.3,35-0.4
			c7.3,2.3,11.6,9.1,9.7,15S46.5,184.7,39.3,182.3L39.3,182.3L39.3,182.3z"/>
		<path class="st0" d="M118.1,185.4c-6.1,0-25.7-6.8-33.1-9.5c-1.2-0.4-1.2-1.8-0.1-2.2c7.4-3,27.1-11,33.3-11
			c7.6,0,13.8,5.1,13.8,11.4C132,180.3,125.8,185.4,118.1,185.4z"/>
		<g>
			<path class="st1" d="M122.8,167.3c-0.4,4-2.9,6.6-6.7,7.3c-3.3,0.6-6.6-1.1-8.3-4.7c-0.3-0.7-0.9-27.8-0.9-36.1
				c0-1.6-0.5-2.7-1.6-3.7c-6.7-6.7-13.4-13.4-20.1-20.1c-0.2-0.2-0.5-0.5-0.7-0.7c-1.1-1.1-1.6-0.7-1.7,0.7
				c-0.7,4.8-1.4,9.6-2.1,14.5c-0.4,2.9-0.7,5.8-1.3,8.6c-0.6,2.9-2.2,5.2-4,7.4c-5.2,6-23.8,27.6-23.9,27.7c-2.2,2.8-5,4.2-8.5,3.4
				c-3.5-0.8-5.6-3.1-6.1-6.6c-0.5-3.5,2.8-8,6.3-11.6c0,0,0,0,0,0c5-5.9,10.1-11.8,15.2-17.6c1.5-1.7,1.4-3.6,1.7-5.5
				c1.5-10.7,3.3-21.4,4.3-32.1c0.7-7.8,3.9-14.7,6.5-21.9c2.1-6,4.5-11.9,6.7-17.8c-0.1-0.1-0.2-0.2-0.3-0.3
				c-2.7,1.6-5.3,3.4-8.2,4.6c-6.1,2.6-9.9,7-12.3,13.1c-1.7,4.3-4.1,8.4-6.4,12.5c-1.6,2.8-3.7,3.8-6.6,3.2
				c-2.9-0.6-5.2-2.8-5.7-5.6c-0.2-1.4,0.1-2.7,0.7-3.9c3.6-7.3,7.3-14.5,10.8-21.8c2-4.2,5.8-6.1,9.6-8.1c7-3.8,14-7.7,21-11.5
				c3.3-1.8,6.8-1.8,10.2-0.5c5.4,2,10.8,4,16.1,6.1c3.5,1.4,5.9,3.7,7,7.6c2.3,8.2,5.1,16.3,7.5,24.4c0.5,1.8,1.5,2.8,3.3,3.4
				c5.4,1.8,10.7,3.7,16.1,5.7c4.1,1.6,5.4,5.8,3.2,9.5c-1.6,2.6-4.8,3.8-7.8,2.7c-7-2.6-14-5.3-21.1-8c-2.5-0.9-4.2-2.6-5-5.2
				c-1.4-4.3-2.9-8.6-4.5-13.1c-1,0.9-1.1,1.9-1.4,2.8c-1.9,5.1-3.7,10.3-5.6,15.4c-0.5,1.3-0.2,2.1,0.7,3
				c6.5,6.8,12.2,14.5,19.6,20.3C127.1,121.6,122.8,162.9,122.8,167.3"/>
			<path class="st2" d="M107.6,40.8c-7.9,0-14.2-6.3-14.3-14.1c-0.1-7.8,6.4-14.2,14.4-14.2c7.9,0,14.1,6.3,14.1,14.2
				C121.8,34.6,115.6,40.8,107.6,40.8L107.6,40.8z"/>
		</g>
	</g>
</g>
</svg>
