<?xml version="1.0" encoding="utf-8"?>
<!-- Generator: Adobe Illustrator 26.4.0, SVG Export Plug-In . SVG Version: 6.00 Build 0)  -->
<svg version="1.1" id="Layer_1" xmlns="http://www.w3.org/2000/svg" xmlns:xlink="http://www.w3.org/1999/xlink" x="0px" y="0px"
	 viewBox="0 0 352.2 352.2" style="enable-background:new 0 0 352.2 352.2;" xml:space="preserve">
<style type="text/css">
	.st0{fill:none;stroke:#F9B233;stroke-width:11;stroke-linecap:round;stroke-linejoin:round;}
	.st1{fill:none;stroke:#95C11F;stroke-width:11;stroke-linecap:round;stroke-linejoin:round;}
	.st2{fill:none;stroke:#D60B52;stroke-width:11;stroke-linecap:round;stroke-linejoin:round;}
	.st3{fill:none;stroke:#36A9E1;stroke-width:11;stroke-linecap:round;stroke-linejoin:round;}
</style>
<g id="Train">
	<g>
		<path class="st0" d="M273.9,344.6c-2.8,0-5.3-1.6-6.7-3.9l-42.3-79.2h17.1l38.6,72.1C283.3,338.5,279.6,344.6,273.9,344.6
			L273.9,344.6L273.9,344.6z"/>
		<path class="st0" d="M131.1,261.3l-42.3,79.2c-1.3,2.5-3.9,3.9-6.7,3.9c-5.8,0-9.4-6.1-6.7-11.1l38.6-72.1h17.2V261.3z"/>
		<path class="st0" d="M219.2,277.8v7.5c0,1.4-1.1,2.5-2.5,2.5h-79.5c-1.4,0-2.5-1.1-2.5-2.5v-7.5c0-1.4,1.1-2.5,2.5-2.5h79.5
			C218.1,275.3,219.2,276.4,219.2,277.8z"/>
		<path class="st0" d="M231.6,300.8v7.5c0,1.4-1.1,2.5-2.5,2.5H124.8c-1.4,0-2.5-1.1-2.5-2.5v-7.5c0-1.4,1.1-2.5,2.5-2.5h104.3
			C230.5,298.3,231.6,299.4,231.6,300.8z"/>
	</g>
	<path class="st1" d="M283.7,28.9H70.4c-2.8,0-5.3,2.4-5.3,5.2v164.8c0-3,2.4-5.3,5.3-5.3h12.4c4.5-9.4,14.3-16,25.6-16
		c11.1,0,20.9,6.6,25.6,16h86.4c4.5-9.4,14.3-16,25.6-16s20.9,6.6,25.6,16H284c2.8,0,5.3,2.4,5.3,5.3V34.3
		C289,31.4,286.6,28.9,283.7,28.9L283.7,28.9L283.7,28.9z M165.7,126.2H98.5c-7.1,0-12.9-5.8-12.9-12.7V75c0-7.1,5.8-12.9,12.9-12.9
		h67.3V126.2z M268.1,113.5c0,7.1-5.8,12.7-12.7,12.7h-67.1v-64h67.3c7.1,0,12.7,5.8,12.7,12.9L268.1,113.5L268.1,113.5z"/>
	<path class="st1" d="M288.8,212.2v43.9c0,3-2.4,5.3-5.3,5.3H70.2c-2.8,0-5.3-2.4-5.3-5.3v-43.9c0,3,2.4,5.3,5.3,5.3h11.9
		c4.4,10,14.4,17.1,26,17.1c11.8,0,21.6-7.1,26-17.1h85.5c4.4,10,14.4,17.1,26,17.1c11.6,0,21.6-7.1,26-17.1h11.9
		C286.6,217.4,289,215.1,288.8,212.2L288.8,212.2L288.8,212.2z"/>
	<path class="st2" d="M79.8,206.1c0,4.1,0.8,7.8,2.4,11.3H70.2c-2.8,0-5.3-2.4-5.3-5.3v-13.2c0-3,2.4-5.3,5.3-5.3h12.4
		C80.9,197.5,79.8,201.7,79.8,206.1L79.8,206.1L79.8,206.1z"/>
	<path class="st2" d="M217.3,206.1c0,4.1,0.8,7.8,2.4,11.3h-85.3c1.4-3.4,2.4-7.2,2.4-11.3c0-4.5-1.1-8.8-2.8-12.4h86.4
		C218.3,197.5,217.2,201.7,217.3,206.1L217.3,206.1L217.3,206.1z"/>
	<path class="st2" d="M288.8,199.1v13.2c0,3-2.4,5.3-5.3,5.3h-11.9c1.4-3.4,2.4-7.2,2.4-11.3c0-4.5-1.1-8.8-2.8-12.4h12.5
		C286.5,193.7,288.8,196.1,288.8,199.1L288.8,199.1L288.8,199.1z"/>
	<path class="st3" d="M133.7,193.7c-4.5-9.4-14.3-16-25.6-16s-20.9,6.6-25.6,16c-1.9,3.8-2.8,8-2.8,12.4c0,4.1,0.8,7.8,2.4,11.3
		c4.4,10,14.4,17.1,26,17.1s21.6-7.1,26-17.1c1.4-3.4,2.4-7.2,2.4-11.3C136.6,201.7,135.5,197.5,133.7,193.7L133.7,193.7
		L133.7,193.7z M118.7,217.4c-2.8,2.7-6.4,4.1-10.5,4.1c-4.1,0-7.7-1.6-10.5-4.1c-3-2.8-4.9-6.9-4.9-11.3c0-5.2,2.5-9.7,6.4-12.4
		c2.5-1.9,5.6-3,9.1-3c3.4,0,6.6,1.1,9.1,3c3.9,2.8,6.4,7.4,6.4,12.4C123.7,210.7,121.8,214.8,118.7,217.4L118.7,217.4L118.7,217.4z
		"/>
	<path class="st0" d="M123.7,206.1c0,4.4-1.9,8.5-4.9,11.3c-2.8,2.7-6.4,4.1-10.5,4.1s-7.7-1.6-10.5-4.1c-3-2.8-4.9-6.9-4.9-11.3
		c0-5.2,2.5-9.7,6.4-12.4c2.5-1.9,5.6-3,9.1-3c3.4,0,6.6,1.1,9.1,3C121.2,196.6,123.7,201.1,123.7,206.1L123.7,206.1L123.7,206.1z"
		/>
	<path class="st3" d="M165.7,62.2v64H98.5c-7.1,0-12.9-5.8-12.9-12.7V75c0-7.1,5.8-12.9,12.9-12.9L165.7,62.2L165.7,62.2z"/>
	<path class="st3" d="M271.1,193.7c-4.5-9.4-14.3-16-25.6-16s-20.9,6.6-25.6,16c-1.9,3.8-2.8,8-2.8,12.4c0,4.1,0.8,7.8,2.4,11.3
		c4.4,10,14.4,17.1,26,17.1c11.6,0,21.6-7.1,26-17.1c1.4-3.4,2.4-7.2,2.4-11.3C273.9,201.7,273,197.5,271.1,193.7L271.1,193.7
		L271.1,193.7z M256.2,217.4c-2.8,2.7-6.4,4.1-10.5,4.1s-7.7-1.6-10.5-4.1c-3-2.8-4.9-6.9-4.9-11.3c0-5.2,2.5-9.7,6.4-12.4
		c2.5-1.9,5.6-3,9.1-3c3.4,0,6.6,1.1,9.1,3c3.9,2.8,6.4,7.4,6.4,12.4C261.1,210.7,259.2,214.8,256.2,217.4L256.2,217.4L256.2,217.4z
		"/>
	<path class="st0" d="M261.1,206.1c0,4.4-1.9,8.5-4.9,11.3c-2.8,2.7-6.4,4.1-10.5,4.1c-4.1,0-7.7-1.6-10.5-4.1
		c-3-2.8-4.9-6.9-4.9-11.3c0-5.2,2.5-9.7,6.4-12.4c2.5-1.9,5.6-3,9.1-3c3.4,0,6.6,1.1,9.1,3C258.6,196.6,261.1,201.1,261.1,206.1
		L261.1,206.1L261.1,206.1z"/>
	<path class="st3" d="M268.1,75v29.2c-19.1-31.5-68.2-38.1-80-41.9h67.1C262.3,62.2,268.1,68,268.1,75L268.1,75L268.1,75z"/>
	<path class="st3" d="M268.1,104v9.3c0,7.1-5.8,12.7-12.7,12.7h-67.3V62C199.9,65.8,249,72.5,268.1,104L268.1,104L268.1,104z"/>
	<path class="st2" d="M230.2,28.9H125.1c3.6-8.9,15.2-21.3,52.5-21.3S226.6,20,230.2,28.9L230.2,28.9L230.2,28.9z"/>
</g>
</svg>
