<?xml version="1.0" encoding="utf-8"?>
<!-- Generator: Adobe Illustrator 26.4.0, SVG Export Plug-In . SVG Version: 6.00 Build 0)  -->
<svg version="1.1" id="Layer_1" xmlns="http://www.w3.org/2000/svg" xmlns:xlink="http://www.w3.org/1999/xlink" x="0px" y="0px"
	 viewBox="0 0 514 514" style="enable-background:new 0 0 514 514;" xml:space="preserve">
<style type="text/css">
	.st0{clip-path:url(#SVGID_00000026140957718806686030000011836536900261323926_);}
	.st1{fill:none;stroke:#FBB040;stroke-width:12;stroke-linecap:round;stroke-linejoin:round;}
	.st2{fill:none;stroke:#8DC63F;stroke-width:12;stroke-linecap:round;stroke-linejoin:round;}
	.st3{fill:none;stroke:#28AAE1;stroke-width:12;stroke-linecap:round;stroke-linejoin:round;}
	.st4{fill:none;stroke:#DA1C5C;stroke-width:12;stroke-linecap:round;stroke-linejoin:round;}
</style>
<g>
	<defs>
		<rect id="SVGID_1_" x="-157.1" y="-165.4" width="837.2" height="837.2"/>
	</defs>
	<clipPath id="SVGID_00000042697133333829698690000014449283795417500049_">
		<use xlink:href="#SVGID_1_"  style="overflow:visible;"/>
	</clipPath>
	<g style="clip-path:url(#SVGID_00000042697133333829698690000014449283795417500049_);">
		<g>
			<path class="st1" d="M251.9,389l-9.6-30.3l-10.8-36.2l-49.2,35.9v106.2c0,12.2-10.3,22.1-22.9,22.1s-22.9-9.9-22.9-22.1V346.3
				c0.2-6.7,3.6-13.3,9.7-17.5l54.6-37.2"/>
			<path class="st2" d="M203.3,289.8l-7.4-34.3l-5.9-27.3l-11.4,24.9c-2.7,5.9-7.7,10.1-13.6,12L100,285.5
				c-11.9,3.7-24.7-2.8-28.5-14.5c-3.8-11.7,2.8-24.3,14.7-28l55.2-17.3l33.5-73.1l1-2.1l0.1-0.2c4.4-8.9,12-15.9,21.3-19.7"/>
			<path class="st3" d="M197.3,130.6c27.9-6.6,38,0.3,38,0.3l78,32.9l0.5,0.2c5.2,2.2,9.2,6.2,11.5,11l0.4,1c0,0,0,0.1,0,0.1
				l28.8,63.5c5.1,11.3,0.2,24.7-11.1,29.9c-11.2,5.2-24.5,0.2-29.6-11.1l-25.4-56.1l-14.8-6.2l-16.9,1.2"/>
			<path class="st4" d="M256.7,197.2l20.1,96.1l16.1,77l70.2,85.2c7.6,9.2,6.1,22.8-3.3,30.2s-23.3,6-30.9-3.3l-55-66.8L251.9,389
				 M142.4,75.1c0,22.8,18.9,41.3,42.3,41.3S227,98,227,75.1s-18.9-41.3-42.3-41.3S142.4,52.3,142.4,75.1z"/>
			<path class="st1" d="M340.8,401.8l111.6-49.6l-34.2-76.9l-111.6,49.6L340.8,401.8z M328.7,311.5c0,0-9.9-43.7,14.1-54.3
				c24-10.7,51.4,28.8,51.4,28.8"/>
		</g>
	</g>
</g>
</svg>
