<?xml version="1.0" encoding="utf-8"?>
<!-- Generator: Adobe Illustrator 26.4.0, SVG Export Plug-In . SVG Version: 6.00 Build 0)  -->
<svg version="1.1" xmlns="http://www.w3.org/2000/svg" xmlns:xlink="http://www.w3.org/1999/xlink" x="0px" y="0px"
	 viewBox="0 0 197 197" style="enable-background:new 0 0 197 197;" xml:space="preserve">
<style type="text/css">
	.st0{fill:none;stroke:#8DC63F;stroke-width:10;stroke-miterlimit:10;enable-background:new    ;}
	.st1{fill:none;stroke:#27AAE1;stroke-width:10;stroke-miterlimit:10;enable-background:new    ;}
	.st2{fill:none;stroke:#DA1C5C;stroke-width:7;stroke-miterlimit:10;}
	.st3{fill:none;stroke:#F8B233;stroke-width:9;stroke-miterlimit:10;}
	.st4{fill:none;stroke:#8EC640;stroke-width:10;stroke-miterlimit:10;}
	.st5{fill:none;stroke:#DA1C5C;stroke-width:10;stroke-miterlimit:10;enable-background:new    ;}
	.st6{fill:none;stroke:#F8B233;stroke-width:7;stroke-miterlimit:10;}
</style>
<g id="Layer_1">
	<polyline class="st0" points="170.4,168.3 185.4,146 167.2,112 135.1,112 	"/>
	<polyline class="st1" points="100.4,168.3 85.4,146 103.6,112 135.7,112 	"/>
	<rect x="42.7" y="92.1" class="st2" width="30.4" height="30.4"/>
	<path class="st3" d="M113,168.1l-2.4-35.9c-0.3-3,2.1-5.5,5.1-5.5l40.2,0.2c2.9,0,5.3,2.5,5.1,5.4l-2.1,36.1"/>
	<path class="st0" d="M122.1,69.8L82.2,47.3c-1.5-0.8-3.3-0.8-4.8,0L14.7,82.8c-2.3,1.3-5.2,0.5-6.6-1.7L7,79.1
		c-1.4-2.3-0.6-5.4,1.7-6.8L78,32c1.5-0.9,3.4-0.9,5,0l51.6,30.6"/>
	<path class="st4" d="M32.6,57.4V36.1c0-2.6,1.9-4.8,4.2-4.8h7.7c2.2,0,4,1.9,4.2,4.4l0.6,10.7"/>
	<circle class="st5" cx="137.2" cy="82.2" r="19.6"/>
	<circle class="st6" cx="135.9" cy="143.6" r="1.3"/>
</g>
<g id="Layer_2">
	<path class="st0" d="M194,168.3H27.5c-2.9,0-5.2-2.3-5.2-5.2V79.2"/>
</g>
</svg>
