<?xml version="1.0" encoding="UTF-8"?><svg id="Calque_1" xmlns="http://www.w3.org/2000/svg" viewBox="0 0 200 200"><defs><style>.cls-1{fill:#3caae0;}.cls-2{fill:#f9b041;font-family:MyriadPro-Regular, 'Myriad Pro';font-size:66.571px;stroke:#f9b041;stroke-width:4px;}.cls-2,.cls-3,.cls-4,.cls-5{stroke-miterlimit:10;}.cls-3{stroke-width:9px;}.cls-3,.cls-4,.cls-5{fill:none;stroke-linecap:round;}.cls-3,.cls-5{stroke:#8dc043;}.cls-4{stroke:#da1a5d;stroke-width:20px;}.cls-5{stroke-width:10px;}</style></defs><path class="cls-4" d="M108.034,34.5767c7.9205,1.1454,15.334,3.5869,22.0572,7.0789,25.4907,13.2398,41.0584,41.5807,36.7115,71.6394-5.4935,37.9867-40.7117,64.332-78.6622,58.8438-37.9505-5.4882-64.2621-40.7316-58.7686-78.7184"/><circle class="cls-5" cx="97.6055" cy="102.0037" r="76.7822"/><circle class="cls-3" cx="97.6055" cy="101.7361" r="59.2388"/><path class="cls-1" d="M91.7798,13.8888V46.1176c0,2.6511,2.9229,3.297,5.1451,3.0104,1.5172-.1957,3.1197-.6284,4.3759-1.5322,.8167-.5876,2.1303-1.5829,2.1303-2.7031V12.6638c0-2.6511-2.9229-3.297-5.1451-3.0104-1.5172,.1957-3.1197,.6284-4.3759,1.5322-.8167,.5876-2.1303,1.5829-2.1303,2.7031h0Z"/><text class="cls-2" transform="translate(62.721 123.1044)"><tspan x="0" y="0">XP</tspan></text></svg>